<?xml version="1.0" encoding="UTF-8"?>
<!DOCTYPE svg PUBLIC "-//W3C//DTD SVG 1.1//EN" "http://www.w3.org/Graphics/SVG/1.1/DTD/svg11.dtd">
<!-- Creator: CorelDRAW 2018 (64-Bit Evaluation Version) -->
<svg xmlns="http://www.w3.org/2000/svg" xml:space="preserve" width="91.44mm" height="162.56mm" version="1.1" style="shape-rendering:geometricPrecision; text-rendering:geometricPrecision; image-rendering:optimizeQuality; fill-rule:evenodd; clip-rule:evenodd"
viewBox="0 0 9144 16256"
 xmlns:xlink="http://www.w3.org/1999/xlink">
 <defs>
  <style type="text/css">
   <![CDATA[
    .fil122 {fill:none}
    .fil4 {fill:#02121C}
    .fil3 {fill:#021524}
    .fil20 {fill:#02192B}
    .fil6 {fill:#031829}
    .fil16 {fill:#031926}
    .fil15 {fill:#054869}
    .fil35 {fill:#083648}
    .fil103 {fill:#09435B}
    .fil44 {fill:#0A5379}
    .fil60 {fill:#0A5489}
    .fil42 {fill:#0A5586}
    .fil10 {fill:#165478}
    .fil107 {fill:#172935}
    .fil40 {fill:#173848}
    .fil70 {fill:#174967}
    .fil80 {fill:#184559}
    .fil12 {fill:#1C211E}
    .fil56 {fill:#1E2221}
    .fil25 {fill:#202020}
    .fil82 {fill:#262A2A}
    .fil78 {fill:#293C48}
    .fil47 {fill:#2A0D0A}
    .fil31 {fill:#2A2D33}
    .fil97 {fill:#2A4758}
    .fil116 {fill:#2F546F}
    .fil32 {fill:#34373A}
    .fil2 {fill:#35454A}
    .fil92 {fill:#374C55}
    .fil9 {fill:#395467}
    .fil112 {fill:#4F362A}
    .fil119 {fill:#57462F}
    .fil113 {fill:#576668}
    .fil111 {fill:#578596}
    .fil21 {fill:#5B3914}
    .fil65 {fill:#623815}
    .fil83 {fill:#6CCCCC}
    .fil45 {fill:#713A2E}
    .fil114 {fill:#7298A9}
    .fil109 {fill:#758E96}
    .fil115 {fill:#889AA2}
    .fil102 {fill:#899998}
    .fil117 {fill:#8CA4A6}
    .fil27 {fill:#8DA19B}
    .fil87 {fill:#939C99}
    .fil63 {fill:#93A39D}
    .fil53 {fill:#93BAC5}
    .fil110 {fill:#957755}
    .fil105 {fill:#95ACB4}
    .fil86 {fill:#96A7A6}
    .fil99 {fill:#978971}
    .fil58 {fill:#9AB6B9}
    .fil37 {fill:#9B825A}
    .fil49 {fill:#9DB2AB}
    .fil30 {fill:#9DB2AD}
    .fil54 {fill:#9DB2B3}
    .fil5 {fill:#9EB1AB}
    .fil24 {fill:#9EB2A9}
    .fil7 {fill:#9FB0AA}
    .fil22 {fill:#A0B0AD}
    .fil43 {fill:#A0B1AB}
    .fil0 {fill:#A1B0AB}
    .fil57 {fill:#A1B1A7}
    .fil118 {fill:#A2AEAA}
    .fil29 {fill:#A2B3B3}
    .fil62 {fill:#A3ADA5}
    .fil94 {fill:#A53548}
    .fil61 {fill:#A67D4D}
    .fil106 {fill:#A7B9B8}
    .fil75 {fill:#A89A86}
    .fil84 {fill:#A8A999}
    .fil108 {fill:#A8BCC3}
    .fil19 {fill:#A97C4E}
    .fil96 {fill:#A9B4A9}
    .fil51 {fill:#ABA48A}
    .fil81 {fill:#B2736B}
    .fil52 {fill:#B3A276}
    .fil73 {fill:#B49571}
    .fil120 {fill:#B4BBBF}
    .fil59 {fill:#B56C55}
    .fil121 {fill:#B5C2BB}
    .fil26 {fill:#B6A999}
    .fil100 {fill:#BBD8D9}
    .fil91 {fill:#BEE3DC}
    .fil34 {fill:#C2E0DC}
    .fil33 {fill:#C3DEE1}
    .fil1 {fill:#C5DFDC}
    .fil14 {fill:#C5DFE1}
    .fil55 {fill:#C5E2E2}
    .fil28 {fill:#C87269}
    .fil77 {fill:#C8CAC9}
    .fil98 {fill:#C8D5CC}
    .fil48 {fill:#C8E5EA}
    .fil93 {fill:#C9916F}
    .fil64 {fill:#CB3C35}
    .fil89 {fill:#D2C8B4}
    .fil88 {fill:#D4CBC9}
    .fil71 {fill:#D8D7C9}
    .fil39 {fill:#D8DAD8}
    .fil46 {fill:#D9F6F9}
    .fil72 {fill:#DA5C4B}
    .fil101 {fill:#E0B9C3}
    .fil90 {fill:#E2903C}
    .fil23 {fill:#E46249}
    .fil69 {fill:#E55D47}
    .fil76 {fill:#E5E7E6}
    .fil66 {fill:#E7D7C6}
    .fil74 {fill:#E7EDF2}
    .fil68 {fill:#E7F8F8}
    .fil17 {fill:#EBECEC}
    .fil85 {fill:#ECB29D}
    .fil50 {fill:#ECF4F4}
    .fil38 {fill:#F0D0B4}
    .fil104 {fill:#F0D3A3}
    .fil13 {fill:#F3FCFB}
    .fil67 {fill:#F4EBD4}
    .fil36 {fill:#F4FBF4}
    .fil41 {fill:#F6ECF2}
    .fil95 {fill:#F9EBE8}
    .fil79 {fill:#F9F6EA}
    .fil8 {fill:#F9F9F9}
    .fil18 {fill:#F9FDF9}
    .fil11 {fill:#FAFEFE}
   ]]>
  </style>
   <clipPath id="id0">
    <path d="M4961.47 5631.42c724.78,0 1312.33,587.55 1312.33,1312.33 0,724.78 -587.55,1312.33 -1312.33,1312.33 -724.78,0 -1312.33,-587.55 -1312.33,-1312.33 0,-724.78 587.55,-1312.33 1312.33,-1312.33z"/>
   </clipPath>
 </defs>
 <g id="Layer_x0020_1">
  <metadata id="CorelCorpID_0Corel-Layer"/>
  <g>
  </g>
  <g style="clip-path:url(#id0)">
   <g>
    <g id="_1362239670752">
     <path class="fil0" d="M4122.7 6729.34l-15.78 16.67 -31.37 0.42 5.97 53.12c-27.53,0.25 -19.5,5.62 -45,17.9 -25.2,12.12 -33.1,10.35 -50.8,10.36l-352.93 -4.55 0 1419.02 2624.66 0 0 -1419.02 -866.13 0c-10.66,29.2 -3.33,-11.11 -11.03,33.87 -2.54,-0.92 -5.35,-3.04 -7.12,-3.88l-94.48 -18.95c0,48.02 -4.61,84.89 8.47,121.1l-28.82 16.85c-20.3,-16.35 -25.31,-6.25 -25.31,-67.69 2.18,0.66 13.49,-7.44 3.09,12.52l-20.03 21.3c-0.88,-52.03 -16.81,-42.83 0,-93.09 -20.51,-15.77 11.68,-2.22 -13.12,0.06 -0.8,0.08 -5.14,1.93 -5.79,0.05 -0.72,-2.11 -4.43,0.57 -6.48,-0.11 -0.39,-31.43 8.04,-28.7 3.08,-58.78 -8.63,-52.36 -19.51,-3.93 -15.85,-42.86 41.42,-4.45 88,1.03 131.26,0.16l135.46 -0.08c236.77,6.68 568.71,-0.08 812.8,-0.08l0 -12.01 -880.57 -0.8 -231.39 -3.96c22.5,66.72 70.83,194.24 81.23,265.09l3.76 8.45c52.73,2.11 68.46,40.23 112.27,48.11 21.95,16.91 17.75,-21.19 15.92,16.12l-13.16 -33.26 52.72 -4.74c-8.77,39.1 1.52,4.14 -9.84,36.72 1.11,-2.31 4.02,-10.25 9.31,-12.35 35.04,-13.9 3.2,-3.12 17.17,5.94 -17.55,39.11 -38.59,26.65 -40.58,26.89 -33.09,4.03 35.05,-30.28 -11.22,4.32 -7.37,35.88 -1.6,60.19 -7.6,91.66 -6.21,32.58 -18.89,35.87 -27.58,60.47 10.38,14.66 12.15,14.92 8.22,45.21 3.16,-1.31 6,-3.29 8.95,-5.01 2.92,-1.7 5.27,-3.01 8.77,-5.07l39.98 -23.7c-16.78,64.61 -30.08,40.7 -49.72,52.24 15.94,0.13 43.69,1.64 51.3,21.02 8.32,21.18 -14.88,31.34 -26.9,36.42 39.19,31.44 89.57,116.41 82.86,174.41 15.13,0.36 37.39,7.24 41.9,-9.32 13.54,-61.8 32.21,-91.13 61.93,-139.22 44.66,-72.26 16.44,-44.09 72.5,-78.96l22.25 -17.35c1.02,-3.39 3.77,-3.43 5.36,-5.42 -9.63,-59.57 -11.15,-1.56 -24.15,-66.61 -4.02,-20.12 -5.88,-44.13 -8.06,-68.8 -5.94,-67.54 -20.21,-85.35 20.14,-121.76 37.15,-33.52 13.1,-41.2 98.82,-46 63.36,-3.55 89.97,7.2 108.43,54.52l15.88 2.74c40.94,7.88 42.29,12.31 46.9,51.52 19.83,168.71 -76.93,158.56 -66.71,196.07 10.02,36.81 90.35,5.81 83.03,71.91 29.21,6.12 31.13,26.18 43.45,46.89l-3.39 -52.7c71.64,3.78 33.5,6.78 33.86,8.47 52.42,4.72 10.25,92.15 9.46,137.4 48.57,-11.16 35.45,3.47 27.62,-40.5 -1.65,-9.3 -25.33,-52.31 22.3,-51.58 31.32,0.47 22.75,13.14 24.74,22.26 1.73,7.99 0.01,55.37 0.01,67.34 -89.73,13.21 -16.93,128.62 -16.93,203.2 -23.01,-8.59 -11.89,-19.37 -67.58,-18.64 -29.04,0.39 -48.36,-4.32 -51.49,13.69 2.56,-88.59 20.6,-62.1 5.64,-74.76 -28.42,11.98 -29.92,-20.99 -26.83,-57.21l-6.02 0c0.2,37.33 -0.95,74.68 -0.88,112.03 0.04,19.51 1.04,40.64 0.69,59.82 -0.55,29.57 3.27,21.51 -6.82,41.6 -0.54,0.73 -1.94,0.83 -1.95,1.89l-0.57 6.78c7.68,16.19 10.88,2.73 20.8,33.79 -44.19,-5.88 1.21,5.26 -24,-3.2 -41.23,-13.85 -21.6,-13.44 -9.87,23.54 -2.46,-1.38 -14.42,-7.23 -16.63,-7.94 -2.21,-0.71 -5.26,-2.2 -7.94,-2.92 -46.98,-12.55 -110.21,22.63 -215.39,-7.5 -23.38,-6.7 -39.61,-8.22 -58.73,0.43l-15.21 9.19c-2.42,1.41 -5.33,3.37 -7.75,5.37 11.07,69.45 34.35,44.8 84.62,49.12 -6.23,31.92 -24.02,35.34 -86.95,13.43 -1.38,-0.48 -17.79,-7.34 -24.16,-9.95l-42.97 -17.05 0 -37.23 60.99 -23.72c1.47,-41.72 -5.2,-42.97 -8.28,-84.36 -2.24,-30.09 -0.18,-69.19 -0.18,-100.17 7.2,-2.42 27.36,-7.72 33.8,-10.16l0.23 -14.9c-37.96,5.64 -64.54,2.48 -101.91,4.41 -61.2,3.15 -48.2,1.02 -101.46,-9.49 14.3,32.46 -14.19,19.97 27.51,28.41 -19.37,31.28 -18.07,62.74 -17.39,110.46 1.05,74.26 -6.81,51.03 -18.28,100.18l-87.53 -7.83c-32.62,1.01 -33.32,-5.53 -98.72,-6.14 -75.38,-0.71 -54.92,3.86 -95.6,8.09 -1.61,0.17 -4.09,0.43 -5.61,0.49l-107.06 -42c37.07,-3.31 13.52,9.52 24.03,-23.6 -12.52,-19.48 -7.62,-37.37 -6.63,-62.92 2.6,-67.12 -6.87,-56.24 -8.38,-68.48 -0.6,-4.88 -2.29,-5.64 -3.9,-8.21l2.53 148.96 -83.1 -2.59c-1.99,-28.72 4.16,-9.42 -21.8,-2.98l0.86 -50.79c-4.7,2.3 -49.06,66.37 -30.65,-72.73 26.23,-12.02 14.72,-6.88 28.22,-19.91 -54.81,-0.08 -18.68,4.08 -31.89,-17.19 7.45,-20.93 2.69,-5.65 -9.65,-11.45l0.03 182.56 -326.53 -2.78 2.3 -221.41 -60.55 2.06c46.25,5.44 48.9,1.03 50.55,42.81 -32.09,27.96 -155.41,10.38 -192.56,1.95l2.43 -45.4 -6.23 -16.14c0.95,-38.58 6.24,-34.47 -9.21,-63.08l2.31 301.79 -326.53 -0.16 -0.07 -229.72 1.56 6.09c0,14.46 2.93,40.26 -3.21,52.79 -28.12,57.39 -50.38,-33.04 -52.22,-37.42 -30.61,16.18 2.46,-10.49 -15.96,15.19 -0.87,1.22 -2.27,3.31 -3.07,4.65l-26.79 46.01c-22.02,13.14 -82.55,5.74 -110.41,5.74l0.03 -135.47 126.96 0c0,34.16 5.59,33.62 8.51,59.27 23.06,-11.95 31.02,9.25 24.5,-42.33 0.39,-17.89 -1.63,-44.53 -0.2,-60.37l11.98 -34.17c17.76,-36.38 43.07,-97.21 88.64,-103.39 12.85,-16.06 24.92,-57.76 -13.38,-69.54 -24.68,-7.59 -82.89,-3.46 -111.58,-3.46l-1.02 -287.87 144.95 0c3.78,35.68 15.1,39.88 28.61,42.4 24.24,-9.94 77.22,-30.04 98.47,1.72 33.67,-18.13 15.19,3.28 22.06,-35.16l-9.56 -253.48 1.88 0.31 -11.26 -2.86c-11.34,29.52 15.67,12.37 -28.47,17.12 -7.63,0.82 -24.44,-3.46 -35.11,-4.49z"/>
     <path class="fil1" d="M3632.79 6731.69l425.82 -3.81c18.56,-25.09 4.97,3.81 14.9,-25.82 -20.99,-29.66 -15.9,-133.73 -10.02,-170.64l-15.86 -98.38c0.94,-1.95 2.16,-4.23 3.16,-6.09l9.36 -15.31c20.07,-32.71 27.55,-102.34 98.08,-99.49 52.59,2.13 34.1,18.84 37.22,36.55l13.21 -1.35c7.3,-10.19 -14.48,-12.15 24.78,-12.1l0 -6.51c-29.7,-7.23 -2.87,7.83 -26.98,-15.3 -4.34,-4.16 -12.07,-15.03 -15.32,-20.58 -35.09,-6.5 -15.8,-23.37 -44.62,-54.32 -23.19,-24.91 -22.06,-20.2 -36.83,-53.64l24.85 -43.09 -0.73 -78.21c-5.31,6.52 -4.2,3.72 -10.53,21.47 -17.04,47.81 6.47,36.78 -24.82,46.22 -10.19,-28.76 1.99,-63.36 -2.86,-95.13 -7.8,-51.06 -21.69,-34.56 -52.2,-54.46 -3.82,-59.43 -23.65,-136.7 122.79,-103.89 2.45,27.09 0.93,39.91 13.55,57.67 19.78,27.82 1.09,6.81 18.92,12.99 39.98,13.87 -5.26,-19.82 11.87,-0.64 -14.04,2.36 -13.49,2.56 -18.16,6.61 -27.31,23.69 -0.53,-13.66 -18.18,26.82 41.93,-3.28 127.01,-21.98 164.62,-19.58 25.86,32.19 -23.97,5.82 45.5,47.63 21.98,13.23 38.36,30.19 43.61,58.61 10.52,56.98 -20.12,56.45 9.22,118.53 10.22,21.62 9.6,-10.72 6.56,21.26 -3.13,32.84 -7.6,25.52 -30.22,36.41 -9.31,8.34 -29.77,29.89 -38.29,45.46 47.17,-9.26 23.46,-16.97 78.82,-19.98 -7.36,52.34 3.28,17.2 -12.12,38.69 -23.13,32.28 -17.42,6.97 -21.74,3.65 10.99,24.37 4.46,21.12 27.12,33.78 57.56,-139.43 0.47,-209.32 66.09,-194.73 2.17,99.33 29.38,142.94 14.94,191.92 -9.68,32.84 -8.26,8.35 -28.02,27.38 -17.46,16.81 19.33,1.98 -29.26,34.69 22.55,13.86 17.75,39.27 43.17,50.89l12.37 38.68c29.39,-16.99 26.03,-20.98 35.63,-55.61 -28.34,-83.64 13.38,-264.51 -9.64,-324.49 -56.78,-62.48 142.39,-41.28 189.37,-41.31l191 -3.32c31.83,-10.69 -2.64,-19.28 40.17,-16.09 -4.77,-32.13 30.8,-15.13 107.5,-14 42.12,0.61 84.54,0.05 127,-1.5l163.29 -0.77c47.27,-2.15 11.68,-19.74 39.91,15.38l7.7 -41.05 92.17 -31.82 -22.63 -17.1c-22.35,-15.72 -13.35,3.17 -21.39,-15.04l76.79 -9.86c52.3,-6.97 17.86,36.77 46.42,-7.03 -36.36,-43.21 -79.42,13.45 -58,-73.71 100.44,2.6 -6.4,32.11 158.36,51.09 53.37,6.15 83.52,-0.92 113.41,5.64 4.08,31.18 8.51,23.94 -10.34,61.6l-14.41 25.06 27.02 12.38c3.91,-19.85 -2.09,-14.33 19.72,-14.33 38.43,59.59 -31.37,-47.29 10.57,14.74 12.03,17.8 6.39,9.35 6.45,10.66l88.03 -11.92 -12.56 127.29c-17,8.02 -4.89,-0.5 -19.62,11.59 0,37.91 8.65,55.35 11.88,84.62 2.61,0.04 7.11,-2.58 7.83,0.03 0.57,2.05 5.52,0.01 6.14,0.01 18.96,-0.03 2.79,-28.63 6.84,33.85 -45.67,35.05 -14.02,-21.69 -37.79,37.3 -5.61,-9.48 6.18,-25.67 -33.99,-7.21 -2.64,1.21 -14.87,10.13 -16.76,12.22 5.85,-39.26 -13.06,-20.61 13.52,-33.86l-22.37 -2.92c-23.71,17.43 -34.49,39.04 -70.07,59.52 -95.53,54.99 -195.72,24.55 -265.43,-67.72 -10.93,-14.47 -7.38,-11.7 -21.56,-24.69 22.69,66.14 6.65,16.89 -6.67,34.12 -64.84,-0.73 -42.63,-10.23 -57.86,-62.18 -0.1,-0.35 -7.94,-45.74 -9.14,-52.39 -8.83,-49.15 -15.55,-25.07 -32.07,-30.84l-1.79 514 -51.5 0.31 -100.73 0.39 -17.88 3.01 -502.1 -2.19 -91.37 1.45 -46.01 -3.32 -7.02 -32.65c3.18,-41.89 9.34,-29.49 -17.27,-29.11 58.57,0 5.3,3.16 28.77,-17.54l-37.23 2.54c-20.13,-27.95 -31.87,-46.81 -58.17,-74.73l-31.69 -37.16c-21.82,10.18 -4.97,-16.4 -19.54,29.4 -8.91,27.97 -0.26,23.15 -16.12,48.4 14.97,49.64 4.44,113.51 6.93,167.67 -8.66,6.34 -6.29,5.26 -20.64,11.94 -8.04,3.74 -3.7,-0.01 -18.56,7.15l-2.83 16.87c117.81,-18.65 309.51,11.39 417.8,-10.39l5.34 -23.83c-43.23,-5.07 -88.37,-2.33 -132.12,-2.08 -21.4,0.12 -47.66,1.45 -68.46,0.42 -12.5,-0.62 -17.8,0.67 -29.95,-4.16 -38.31,-15.25 -11.44,-2.2 -22.1,-21.32 22.64,-41.2 112.53,-26.49 196.71,-25.81 127.04,1.02 597.32,-10.12 655.33,8.05l-19.85 -9.1 -0.01 -91.66c64.37,-6.93 136.63,-14.9 163.81,5.04 0,38.28 4.45,112 -11.88,147.34 -60.58,0 -108.32,-17.87 -143.97,21.02l880.57 0.8 0 -1130.94 -2624.66 0 0 1130.99z"/>
     <path class="fil2" d="M5476.72 6242.18c14.18,12.99 10.63,10.22 21.56,24.69 69.71,92.27 169.9,122.71 265.43,67.72 35.58,-20.48 46.36,-42.09 70.07,-59.52 25.88,-71.17 49.99,-130.34 3.03,-211.39 -6.22,-10.74 -11.97,-17.52 -17.17,-25.4 -11.78,-17.83 -7.37,-7.53 -13.75,-25.28l-27.02 -12.38c-42.77,-22.24 -84.96,-48.97 -147.99,-31.29 -68.46,11.22 -109.03,47.18 -134.1,90.22 -48.91,83.98 -21.55,105.51 -20.06,182.63z"/>
     <path class="fil3" d="M5062.63 7475.55l-2.28 305.12 328.41 -2.84 -0.56 -229.77 -1.28 -67.73c-25.5,-51.84 -62.47,-38.29 -128.53,-38.04 -59.21,0.22 -119.2,-3.33 -177.76,5.04 -3.81,12.46 -7.24,13.29 -18,28.22z"/>
     <path class="fil4" d="M3985.3 7480.33l1.49 67.73 0.07 229.72 326.53 0.16 -2.31 -301.79c-15.33,-32.54 -3.42,-16.89 -34.78,-29.25 -44.51,-12.98 -110.69,-4.26 -160.92,-4.56 -63.87,-0.37 -101.61,-12.93 -130.08,37.99z"/>
     <path class="fil5" d="M4366.23 6737.32l-9.29 307.77 37.72 -0.37c38.51,-3.84 70.91,8.85 92.97,6.46 34.57,-3.74 12.66,4.7 34.16,-13.31l12.48 22.57c9.02,-28.53 6.07,-20.88 24.91,-33.48 18.81,-29.19 11.56,-23.98 45.18,-39.63l26.62 -14.38c15.97,-7.93 17.76,-5.35 31.08,-13.66 2.45,41.78 18.41,20.54 -22.6,24.47l12.27 3.73 49.94 4.25 82.36 -264.81c-108.29,21.78 -299.99,-8.26 -417.8,10.39z"/>
     <path class="fil6" d="M4523.07 7534.6l3.58 19.35 -2.3 221.41 326.53 2.78 -0.03 -182.56 -2.11 -40.84 0.12 -22.61c0.41,-88.84 -19.68,-88.48 -106.61,-89.81 -56.63,-0.86 -139.39,-7.6 -192.2,4.1 -22.41,28.96 -23.36,43.78 -26.98,88.18z"/>
     <path class="fil0" d="M4255.85 7028.83c14.7,34.98 24.49,30.73 28.31,70.78 2.22,23.34 -0.01,55.73 -0.52,79.55l-46.09 79.5c-0.71,-1.46 -2.88,3.94 -4.25,5.97 11.64,10.15 11.65,-1.07 -11.4,15.9 -24.55,18.07 -3.28,10.34 -40.62,17.61 25.02,4.34 0.29,-0.52 13.06,15.95 90.12,21.43 84.01,3.69 127.6,70.38 17.97,27.48 56.67,91.32 59.46,138.75l-1.79 23.1 4.12 0c9.84,-11.53 -1.12,-24.12 42.57,-14.46l23.23 11.06 1.8 -40.19 -40.23 4.82c1.64,-2.12 4.31,-6.55 5.01,-5.04l23.13 -40.86c7.3,-25.28 -0.68,-4.86 6.62,-20.31 7.55,-15.98 28.85,-42.25 39.43,-64.19 26.39,-54.72 46.56,-94.48 112.7,-83.09l8.42 23.18 50.89 -6.46 0 -11.95c-26.33,-8.66 -23.51,-7.71 -37.39,-33.19l8.1 -5.04c-54.3,-24.99 -57.29,-53.08 -66.08,-119.02 -14.35,-19.9 -6.97,0.5 -14.18,-34.52 -1.06,-5.12 -0.52,-28.9 0.04,-30.32l-25.96 5.74c8.5,22.77 8.95,60.75 15.5,92.84 11.65,57.14 17.73,29.77 5.6,89.89 -60.91,13.91 -44.63,2.53 -95.19,-13.41l-2.99 -43.29c37.17,25.06 4.25,16.7 60.15,9.35 10.76,-20.12 9.85,-30.8 17.77,-50.84 1.07,0.73 22.75,-2.74 -1.66,5.88 -10.26,3.63 -23.14,-10.1 -27.17,-16.79 -5.68,-9.47 -17.33,-51.97 -22.81,-67.76l-167.89 12.38c-13.08,-22.68 -9.35,-5.3 -6.5,-22.01l8.69 -58.68c-26.71,-43.95 2.64,-191.85 -31.04,-232.2 5.12,26.51 -8.46,225.38 -18.44,240.99z"/>
     <path class="fil5" d="M6257.45 6823.26l0 -79.61c-244.09,0 -576.03,6.76 -812.8,0.08l-135.46 0.08c-43.26,0.87 -89.84,-4.61 -131.26,-0.16 -3.66,38.93 7.22,-9.5 15.85,42.86 4.96,30.08 -3.47,27.35 -3.08,58.78 2.05,0.68 5.76,-2 6.48,0.11 0.65,1.88 4.99,0.03 5.79,-0.05 24.8,-2.28 -7.39,-15.83 13.12,-0.06 -16.81,50.26 -0.88,41.06 0,93.09l20.03 -21.3c10.4,-19.96 -0.91,-11.86 -3.09,-12.52 0,61.44 5.01,51.34 25.31,67.69l28.82 -16.85c-13.08,-36.21 -8.47,-73.08 -8.47,-121.1l94.48 18.95c1.77,0.84 4.58,2.96 7.12,3.88 7.7,-44.98 0.37,-4.67 11.03,-33.87l866.13 0z"/>
     <path class="fil7" d="M4819.1 7183.91c-11.67,34.14 -22.59,42.31 -34.65,65.64 -25.34,59.86 -58.75,52.75 -127.15,49.28l0 11.95c50.31,-2.81 57.62,-0.54 101.6,9.92 32.25,-41.54 98.73,-4.12 115.12,18.42 0.38,0.52 20.12,71.52 45.66,90.41l-6.99 37.06 7.92 74.06 4.18 10.67 0.73 -1.12 11.17 -23.02c14.84,-1.4 1.9,-5.26 23.38,-0.63l19.49 7.62c1.57,0.69 4.07,2.59 6.2,3.72 -0.6,-38.74 -0.09,-57.38 23.93,-79.43 7.77,-35.16 45.84,-110.91 81.88,-125.64 17.44,-15.94 7.29,-9.7 39.86,-14.13 2.62,-2.24 6.22,-9.19 7.48,-7.14 1.49,2.39 21.03,-15.37 13.32,-25.99 -4.57,-6.3 -26.04,-0.99 -11.82,-30.11 -25.65,-50.07 -34.15,-53.47 -43.14,-127.56l-58.42 -16.5c-25.9,0.33 -50.73,0.57 -76.79,0.44 -98.13,-0.49 -126.16,16.15 -127.05,-21.3 0,44.69 5.21,41.44 -7.16,76.95l-8.75 16.43z"/>
     <path class="fil8" d="M5012.9 6180.26l17.6 5.45c12.08,-7.43 -13.18,-1.05 16.9,-7.47 17.13,-3.66 12.14,-0.51 26.34,-0.9l25.1 31.65 -16.52 44.52 -7.36 26.98c-20.67,8.47 -11.49,17.73 -2.8,34.21 -18.68,-5.84 -0.51,-2.98 -10.35,18.91l-4.73 13.4 -81.78 -3.34 4.62 -13.04 -0.45 -33.83c-19.55,-3.33 -6.84,3 -25.11,-9.09 -24.27,-16.07 -4.13,2.01 -26.13,-26.08l1.16 -15.46c-4.97,9.26 -9.63,-21.03 -9.63,32.02 17.69,21.76 14.76,37.73 -5.39,49.83 -17.75,10.65 2.02,8.09 -11.63,0.85 36.33,-7.53 55.31,-43.41 35.45,90.41 -13.96,9.94 -7.77,-5.42 -10.38,27.62l0.38 9.74c-52.82,-8.91 -39.55,18.5 -75.24,-9.28 25.13,-19.66 9.48,-5.43 32.95,-9.19 2.81,-0.45 4.99,-0.25 7.85,-0.72 2.86,-0.46 5.06,-0.5 7.83,-1l22.24 -6.02c-24.76,-14.63 -71.1,-7.39 -100.41,-9.19 0.95,2.26 3.23,3.02 3.7,6.36 0.42,3.05 2.92,4.74 3.43,5.78l5.56 15.17c-24.4,8.25 -29.85,11.31 -49.53,-6.52l-15.09 -19.85c9.13,43.82 6.59,8.57 4.26,49.37l-0.05 26.93c18.24,-23.78 8.15,-24.08 49.11,-24.88 -9,31.72 -13.32,18.9 4.89,41.55l20.62 -47.22 89.77 13.3 1.68 127 -44.69 5.34 -51.37 -3.4 -29.28 2.17 -36.88 0.33 -89.9 -3.72c-2.56,37.3 -6.98,10.72 7.34,37.46l502.1 2.19 -4.92 -31.31 -97.96 -1.35 -95.85 -1.26 -27.2 -0.65 -2.86 -55.77 26.94 -1.84c2.2,-57.81 -24.15,-15.47 22.13,-46.1l-29.66 -8.18 42.94 -12.36c6.55,15.35 9.96,29.28 15.75,49.54l10.41 -54.58 34.87 -4.36c-10.11,-33.22 -22.53,-11.23 -47.92,-6.3 -19.54,3.79 -55.35,2.41 -75.27,-1.28l0.01 -27.76c87.18,-19.79 201.03,7.61 279.39,-14.61 -39.84,-13.72 -209.04,4.36 -278.79,-12.59 42.04,-11.23 331.56,-10.14 353.19,-5.07 -1.2,31.31 1.69,67.9 1.88,102.31 0.31,54.5 7.81,79.66 -16.97,110.04l-38.96 -11.18 -3.8 2.71 -32.53 -3.07c-25.69,27.58 -4.92,-3.26 -16.94,32.01l100.73 -0.39c44.95,-106.36 1.15,-98.98 26.97,-175.46 19.68,-58.27 0.33,-207.47 7.89,-318.75l-52.99 4.23c-0.61,0.35 -2.88,2.06 -3.36,2.36l-6.96 5.55c1,0.31 2.53,0.98 2.9,1.22l25.62 19.02 -14.23 35.4c8.59,18.33 14.37,27.24 13.67,50.59 -0.32,10.83 -1.62,16.85 -5.46,26.74 -5.12,13.18 -8.86,12.46 -9.5,13.25 -0.35,66.37 -129.44,94.32 -171.04,16.02 -20.24,-24.96 -15.84,-31.49 -22.1,-66.43 -1.48,-10.56 -4.59,-3.16 -0.65,-16.43 5.42,-18.28 1.8,-13.46 10.86,-23.71l1.05 -1.42c21.88,-37.02 23.61,-26.29 48.11,-52.3l6.84 -7.52 22.65 -10.66c-30.09,-21.64 -19.34,-6.82 -79.79,-2.16 -43.79,3.38 -38.96,16.26 -77.4,8.92 -37.08,-7.08 -20.86,-20.26 -53.36,-2.67 2.51,1.28 10.18,4.15 11.79,5.01 19.02,10.25 7.35,3.22 19.76,11.96 -6.7,1.01 -1.74,5.15 -6.06,12.3z"/>
     <path class="fil9" d="M4784.03 6726.93l-82.36 264.81 -49.94 -4.25 0 9.24c12.55,-0.36 26.93,-1.32 39.45,0 35.47,3.73 10.18,-5.27 34.23,9.13l4.2 -18.07 60.7 -207.64c18.84,-36.95 6.45,-52.43 33.12,-77.01l121.35 -2.59 7.82 34.33c0.38,11.48 -1.85,37.17 -2.09,51.08l-1.61 276.66c49.07,14.54 13.95,8.19 28.67,-5.66 -0.44,-59.37 -3.05,-117.64 -2.82,-177.8l5.67 -177.96 134.91 -0.08 9.35 30.36 25.24 94 51.56 163.7 -0.23 8.47 25.47 -5.68c-10.4,-70.85 -58.73,-198.37 -81.23,-265.09l-0.49 -25.67c48.14,-1.78 93.73,-1.01 138.83,-0.64 58.14,0.49 100.36,15.45 104.95,-42.37 -58.01,-18.17 -528.29,-7.03 -655.33,-8.05 -84.18,-0.68 -174.07,-15.39 -196.71,25.81 10.66,19.12 -16.21,6.07 22.1,21.32 12.15,4.83 17.45,3.54 29.95,4.16 20.8,1.03 47.06,-0.3 68.46,-0.42 43.75,-0.25 88.89,-2.99 132.12,2.08l-5.34 23.83z"/>
     <path class="fil10" d="M4606.41 7317.24c-54.44,3 -22.3,-1.71 -24.42,11.16 -46.62,-11.25 -62.1,36.14 -83.76,69.62 -19.45,30.06 -38.78,64.83 -45.7,101.52 21.01,38.58 11.07,38.13 70.54,35.06 3.62,-44.4 4.57,-59.22 26.98,-88.18 52.81,-11.7 135.57,-4.96 192.2,-4.1 86.93,1.33 107.02,0.97 106.61,89.81l61.32 5.43c1.38,0.4 4.04,1.96 5.99,3.09l4.44 0 -7.92 -74.06c-20.91,-18.31 -18.63,-25.31 -32.73,-47.54 -9.99,-15.75 -17.38,-27.34 -26.88,-41.3 -31.84,-46.79 -29.14,-46.62 -94.18,-57.05 -43.98,-10.46 -51.29,-12.73 -101.6,-9.92l-50.89 6.46z"/>
     <path class="fil8" d="M4593.33 6365.59c1.49,-1.42 3.81,-5.7 4.58,-4.13l27.75 -14.11c33.34,-10.61 76.18,-9.11 106.89,-1.1 18.96,4.95 12.66,4.11 19.11,7.98l-105.96 32.01 6.58 10.81c3.66,22.17 27.22,12.31 55.46,10.99l195.04 0.2c27.91,3.16 17.06,-1.87 35.41,11.04 19.86,-133.82 0.88,-97.94 -35.45,-90.41 13.65,7.24 -6.12,9.8 11.63,-0.85 20.15,-12.1 23.08,-28.07 5.39,-49.83 48.64,-42.7 -134.57,30.46 -135.14,30.59 -38.6,9.35 -133.01,0.96 -178.17,3.07 -21.32,-19.08 -10.5,-5.87 -14.61,-32.24 -2.32,-14.87 13.21,-61.55 -2.32,-81.09 47.85,-19.36 252.33,-14.97 313.27,-11.13 13.85,12.25 6.89,8.38 13.61,17.41l11.46 16.2c0.54,0.79 1.79,2.68 2.34,3.48l12.55 18.71c8.87,-44.57 22.72,-49.98 10.79,-92.12 -22.17,-11.28 -161.35,-4.3 -203.56,-5.96 -62.51,-2.44 -114.88,-16.01 -182.55,6.02l5.12 220.03c-1.64,-2.1 -26.93,-8.58 20.78,-5.57z"/>
     <path class="fil11" d="M5672.45 6057.94l7.45 126.67c-10.32,6.89 -25.36,12.29 -26.53,12.31 -0.34,0 -1.98,-0.48 -2.34,-0.51 -40.26,-3.43 -17.9,-14.74 -25.45,9.25l-20.1 -35.32 -48.82 6.05c-1.11,-0.46 -3.13,-0.25 -3.62,-0.13 -0.51,0.13 -3.12,0.17 -3.76,0.4l-24.11 16.7c25.97,48.27 10.05,33.62 32.51,56.36 68.77,69.6 78.91,34.46 115.53,20.56 -55.82,58.14 -23.62,47.96 -50.8,61.11 66.59,39.59 154.59,-23.31 185.14,-62.99 32.92,-42.78 56.78,-164.82 3.04,-197.86l-6.81 28.6c-12.15,-13.14 -19.8,-29.29 -37.4,-40.7 -1,0.73 0.62,13.21 -20.04,7.91l-41.09 -40.96c-0.53,-3.44 -1.74,-4.49 -2.79,-6.66 -4.78,24.74 -11.41,48.18 -12.58,73.49 -0.47,9.95 0.3,24.21 1.82,34.01 3.11,20.11 4.26,18.32 7.31,24.75l-1.76 -84.62c-7.33,-4.71 -13.44,-14.65 -24.8,-8.42z"/>
     <path class="fil12" d="M5110.41 7051.28l-14.47 31.12 1.33 45.49c8.99,74.09 17.49,77.49 43.14,127.56l34.98 19.14c39.99,9.22 63.62,11.8 105.35,2.49l47.15 -36.78c8.69,-24.6 21.37,-27.89 27.58,-60.47 6,-31.47 0.23,-55.78 7.6,-91.66l-20.32 -39.64c-43.81,-7.88 -59.54,-46 -112.27,-48.11l-22.85 5.69 18.96 15.47c1.92,3.38 7.57,2.77 2.72,19.74 -12.41,43.39 -6.48,11.08 -24.65,19.44l-56.34 38.49c-18.01,-12.11 -2.11,-2.05 -15.96,-20.74l-21.95 -27.23z"/>
     <path class="fil13" d="M4562.19 6438.94c17.82,-20.57 28.71,-46.35 31.14,-73.35 -47.71,-3.01 -22.42,3.47 -20.78,5.57l-5.12 -220.03c67.67,-22.03 120.04,-8.46 182.55,-6.02 42.21,1.66 181.39,-5.32 203.56,5.96 11.93,42.14 -1.92,47.55 -10.79,92.12l-13.36 2.98 -1.16 15.46c22,28.09 1.86,10.01 26.13,26.08 18.27,12.09 5.56,5.76 25.11,9.09 15.57,6.92 7.82,6.14 11.21,-8.98 -3.69,-6.95 -7.53,-15.35 -12.49,-24.81l-11.92 -26.96 20.94 -22.15 -3.26 -0.06 14.5 -18.95 14.45 -14.63c4.32,-7.15 -0.64,-11.29 6.06,-12.3 -12.41,-8.74 -0.74,-1.71 -19.76,-11.96 -1.61,-0.86 -9.28,-3.73 -11.79,-5.01 32.5,-17.59 16.28,-4.41 53.36,2.67 38.44,7.34 33.61,-5.54 77.4,-8.92 60.45,-4.66 49.7,-19.48 79.79,2.16l-22.65 10.66 11.67 -0.97c28.36,2.28 35.15,-1.75 52.7,13.76l7.52 -2.22c33.06,10.41 45.71,20.09 56.33,50.64l14.23 -35.4 -25.62 -19.02c-0.37,-0.24 -1.9,-0.91 -2.9,-1.22l6.96 -5.55c0.48,-0.3 2.75,-2.01 3.36,-2.36l52.99 -4.23c-7.56,111.28 11.79,260.48 -7.89,318.75 -25.82,76.48 17.98,69.1 -26.97,175.46l51.5 -0.31 1.79 -514 -4.63 -14.99 -813.8 -1.45c23.02,59.98 -18.7,240.85 9.64,324.49z"/>
     <path class="fil6" d="M5128.6 7603.79c16.92,23.08 4.92,0 12.66,26.09l123.22 5.61c11.01,8.08 9.94,8.94 19.35,14.13 0,18.67 -2.34,52.79 -0.95,69.2 4.31,51.09 23.78,45.36 34.77,49.29 12.67,-10.62 24.06,13.55 23.06,-84.51l2.31 -162.72c8.53,-30.41 18.73,-14.54 -0.97,-49.06l-100.61 -0.23c-36.69,0.25 -73.36,0.19 -110.05,0.19l-32.82 51.81c-0.92,1.05 -2.69,3.45 -3.52,4.52 -0.92,1.19 -2.61,4.37 -3.34,5.43 -11.74,16.85 5.75,27.04 9.49,30.37l48.61 26.44c-18.41,3.25 -15.79,8.47 -21.21,13.44z"/>
     <path class="fil5" d="M4790.31 6780.15l24.55 4.9c2.09,66.3 -20.23,30.19 -18.06,93.89 1.22,36.07 10.47,8.83 -1.87,86.2l-33.69 17.49c-2.1,0.65 -4.35,1.23 -6.53,1.77 -2.93,0.71 -23.37,3.26 -25.1,3.39l-4.2 18.07 22.5 8.28 185.68 -7.39c32,12.53 19.95,16.66 19.95,58.63l-4.64 -2.76 1.61 -276.66c0.24,-13.91 2.47,-39.6 2.09,-51.08l-7.82 -34.33 0.48 28.61 -132.7 0.84 10.87 -26.86c-26.67,24.58 -14.28,40.06 -33.12,77.01z"/>
     <path class="fil14" d="M4973.09 6053.73l13.39 18.19 357.07 0.6c36.65,3.24 25.33,-0.46 45.13,19.24 -11.48,29.9 7.54,9.67 -22.33,24.14l4.63 14.99c16.52,5.77 23.24,-18.31 32.07,30.84 1.2,6.65 9.04,52.04 9.14,52.39 15.23,51.95 -6.98,61.45 57.86,62.18 13.32,-17.23 29.36,32.02 6.67,-34.12 -1.49,-77.12 -28.85,-98.65 20.06,-182.63 25.07,-43.04 65.64,-79 134.1,-90.22 -13.98,-21.98 -3.93,-11.94 -21.1,-27.65 -14.83,-13.56 5.73,0.64 -19.93,-10.74 -28.56,43.8 5.88,0.06 -46.42,7.03l-76.79 9.86c8.04,18.21 -0.96,-0.68 21.39,15.04l22.63 17.1 -92.17 31.82 -7.7 41.05c-28.23,-35.12 7.36,-17.53 -39.91,-15.38l-163.29 0.77c-42.46,1.55 -84.88,2.11 -127,1.5 -76.7,-1.13 -112.27,-18.13 -107.5,14z"/>
     <path class="fil6" d="M4041.17 7561.15c-34.82,61.49 -27.71,91.84 -22.23,205.12 63.99,-13.17 187.68,12.86 269.05,-3.07l-8.75 -270.87c-1.51,-0.56 -8.32,-3.08 -10.48,-3.78 -3.33,-1.09 -15.82,-4.55 -23.77,-6.89 -34.84,-10.22 -29.27,-9.57 -68.78,-9.8 13.53,30.87 -39.18,25.17 40.78,25.36 22.17,44.57 16.12,212.28 0,254.02l-159.85 0.02 -1.02 -118.58 118.54 0 0 -118.53c-84.75,-19.74 -110.01,3.72 -139.73,16.94 9.5,7.93 5.7,21.74 6.24,30.06z"/>
     <path class="fil5" d="M3632.79 6823.26l352.93 4.55c17.7,-0.01 25.6,1.76 50.8,-10.36 25.5,-12.28 17.47,-17.65 45,-17.9l-5.97 -53.12 1.46 -13.38 -18.4 -5.17 -425.82 3.81 0 91.57z"/>
     <path class="fil0" d="M4037.11 7324.65l70.38 -7.17 16.55 -23.4 -33.4 -12.06 12.07 0.35 -20.12 -23.05c-1.01,-1.23 -2.74,-3.21 -3.67,-4.41 -9.73,-12.49 -3.49,-1.16 -9.24,-13.96 -46.44,-24.54 -54.16,-105.53 -40.57,-154.75 0.48,-1.77 1.48,-4.67 2.66,-6.8 -0.83,-32.83 24.99,-56 52.92,-73.22 -13.51,-2.52 -24.83,-6.72 -28.61,-42.4l-144.95 0 1.02 287.87c28.69,0 86.9,-4.13 111.58,3.46 38.3,11.78 26.23,53.48 13.38,69.54z"/>
     <path class="fil15" d="M4124.4 6444.69c19.53,8.88 10.34,-1.72 15.39,21.62 3.23,42.66 13.09,67.07 13.28,116.46 0.16,42.37 -0.4,84.89 0.11,127.05l33.1 6.89 11.26 2.86 4.64 -11.69c-16.19,-9.64 -10.58,25.2 -10.63,-15.03 15.67,10.42 42.37,7.02 55.97,4.26 65.18,-13.24 37.01,15.55 45.63,-38.08 -26.03,-22.37 18.93,-83.23 0.47,-101.65l-4.78 -46.55c-21.28,-1.77 -18.6,1.93 -36.84,-7.6 -19.41,-10.13 -4.72,0.84 -17.21,-21.37 -13.99,-24.87 -21.78,-34.74 -26.88,-63.78 -11.44,-18.95 -23.79,-57.67 -64.72,-44.79 -31.94,10.06 -20.5,46.4 -18.79,71.4z"/>
     <path class="fil16" d="M5667.05 7759.73l192.47 0c66.29,1.43 9.54,-4.93 33.82,18.19l24.06 -1.47c15.17,-48.37 3.28,-247.09 -16.51,-273.64l-15.93 2.83c0,83.73 41.39,87.15 -0.04,132.88 -33.38,-11.51 -8.06,5.19 -22.57,-22.71l-19.77 -70.91c-12.01,8.17 -28.72,16.52 -37.25,31.78l-18.33 53.51c-0.57,-1.29 -2.02,5.27 -3.68,7.78l-104.83 -0.1c-0.14,40.11 6.24,116.48 -11.44,121.86z"/>
     <path class="fil17" d="M4919.76 6278.19c0,-53.05 4.66,-22.76 9.63,-32.02l13.36 -2.98 -12.55 -18.71c-0.55,-0.8 -1.8,-2.69 -2.34,-3.48l-11.46 -16.2c-6.72,-9.03 0.24,-5.16 -13.61,-17.41 -60.94,-3.84 -265.42,-8.23 -313.27,11.13 15.53,19.54 0,66.22 2.32,81.09 4.11,26.37 -6.71,13.16 14.61,32.24 45.16,-2.11 139.57,6.28 178.17,-3.07 0.57,-0.13 183.78,-73.29 135.14,-30.59z"/>
     <path class="fil17" d="M5093.67 6480.38l12.27 18.87 -1.09 0 31.85 2.31 3.78 51.17 6.51 1.52 34.33 -0.62 5.45 -4.63c23.86,-28.37 -27,-0.4 13.26,-9.4 12.43,-2.77 13.03,-1.33 25.08,-1.18l2.88 71.07c-2.09,1.38 -5,1.42 -6.2,4.22 -1.15,2.69 -4.89,2.94 -6.43,3.22 -15.05,2.75 -5.93,2.5 -21.2,0.36l4.92 31.31 17.88 -3.01c12.02,-35.27 -8.75,-4.43 16.94,-32.01l-1.62 -111.72 31.33 0.99 2.82 113.8 3.8 -2.71 38.96 11.18c24.78,-30.38 17.28,-55.54 16.97,-110.04 -0.19,-34.41 -3.08,-71 -1.88,-102.31 -21.63,-5.07 -311.15,-6.16 -353.19,5.07 69.75,16.95 238.95,-1.13 278.79,12.59 -78.36,22.22 -192.21,-5.18 -279.39,14.61l-0.01 27.76c19.92,3.69 55.73,5.07 75.27,1.28 25.39,-4.93 37.81,-26.92 47.92,6.3z"/>
     <path class="fil6" d="M4041.17 7561.15c-0.54,-8.32 3.26,-22.13 -6.24,-30.06 29.72,-13.22 54.98,-36.68 139.73,-16.94l0 118.53 -118.54 0 1.02 118.58 159.85 -0.02c16.12,-41.74 22.17,-209.45 0,-254.02 -79.96,-0.19 -27.25,5.51 -40.78,-25.36 -9.76,-14.48 -120.24,-9.13 -145.43,-9.48 -1.01,2.17 -0.86,3.53 -0.94,5.5 -0.08,1.91 -0.66,3.78 -0.78,4.35l-2.11 10.9c-23.18,31.56 37.3,-4.72 -9.17,5.01l-20.88 0.65c4.29,26.78 6.37,27.42 9.98,46.18 0.73,3.82 2.78,16.91 3.23,19.27l3.68 16.66c23.06,-6.53 12.12,-1.86 27.38,-9.75z"/>
     <path class="fil9" d="M4552.55 6114.45l813.8 1.45c29.87,-14.47 10.85,5.76 22.33,-24.14 -19.8,-19.7 -8.48,-16 -45.13,-19.24l-357.07 -0.6 -13.39 -18.19c-42.81,-3.19 -8.34,5.4 -40.17,16.09l-191 3.32c-46.98,0.03 -246.15,-21.17 -189.37,41.31z"/>
     <path class="fil18" d="M3948.47 7428.04c-11.43,143.94 -5.36,117.7 22.99,122.92 7.92,-14.95 19.05,28.1 2.39,-41.51 -13.42,-56.06 -8.95,-15.06 11.45,-29.12 28.47,-50.92 66.21,-38.36 130.08,-37.99 50.23,0.3 116.41,-8.42 160.92,4.56l-22.01 -0.52 9.84 -29.47c-0.14,-1.97 -6.37,-19.26 -7.3,-21.67 -22.9,-59.16 21.38,-32.07 -39.84,-41.91 3.62,11.9 -20.15,22.8 11.01,3.09l16.88 -20.02 -120.03 -13.49 -17.36 -5.43 -70.38 7.17c-45.57,6.18 -70.88,67.01 -88.64,103.39z"/>
     <path class="fil19" d="M5709.96 7263.3c0.61,1.28 0.98,2.07 1.3,4.04 0.64,3.93 4.48,8.47 6.3,10.63l81.3 1.67 -14.6 -18.46c38.54,-14.18 77.44,-13.27 86.7,-128.3 5.66,-70.4 -6.31,-53.85 -11.31,-55.2l-25.57 4.68c24.02,35.37 4.51,65.61 -16.9,82.7 -36.13,-15.63 -0.04,9.21 -18.87,-15.31 -23.43,-30.51 1.82,4.85 -6.76,-12.73l-22.81 -38.41c-15.57,-19.7 -8.32,0.65 -19.25,-33.15l52.15 -12.35 -11.87 -27.96c-52.57,-7.99 -57.91,-11.56 -89.98,16.01 -55.46,47.7 -57.5,54.76 -31.33,150.4 14.49,52.99 24.07,9.41 41.5,71.74z"/>
     <path class="fil20" d="M5667.05 7759.73c17.68,-5.38 11.3,-81.75 11.44,-121.86l104.83 0.1c1.66,-2.51 3.11,-9.07 3.68,-7.78l18.33 -53.51c8.53,-15.26 25.24,-23.61 37.25,-31.78l19.77 70.91c14.51,27.9 -10.81,11.2 22.57,22.71 41.43,-45.73 0.04,-49.15 0.04,-132.88 14.5,-60.57 -3.67,-29.4 -8.51,-34.92 -62.71,-4.35 6.11,4.45 -48.31,19.41l-146.42 8.69c-41.36,32.71 -13,65.74 -29.21,101.05 -31.28,68.12 -21.36,66.65 -20.9,160.56l35.44 -0.7z"/>
     <path class="fil11" d="M5009.69 7458.46l-9.3 39.13c3.43,1.94 6.87,1.5 8.21,4.52l43.43 -4.85 10.6 -21.71c10.76,-14.93 14.19,-15.76 18,-28.22 16.99,-14.84 5.54,-9.64 33.27,-16.95l254.51 -0.94c-8.57,-72.28 5.43,-14.38 -21.65,-47.26 -15.47,-18.79 -66.84,-37.21 -89.81,-46.03 -42.95,-16.48 -122.53,4.1 -165.38,-3.33 -36.04,14.73 -74.11,90.48 -81.88,125.64z"/>
     <path class="fil21" d="M4634.25 7243.18c-7.29,-45.9 -25.78,-61.01 14.54,-79.42 43.81,23.3 28.66,57.66 16.97,70 25.94,14.87 54.89,38.1 84.58,40.63l8.84 -8.48 -0.37 -56.56c22.19,-12.22 34.36,1.53 49.28,-67.7 11.88,-55.14 -14.86,-75.96 -68.16,-95.2 -48.69,-17.58 -25.25,5.39 -40.39,-14.94 -17.2,0 -35.88,2.14 -40.89,3.56l-11.61 6.03c-36.1,24.62 12.34,23.92 27.57,29.21 65.43,22.76 28.31,-6.71 -7.54,61.71l-9.86 18.03c-55.89,-46.25 24.62,-79.6 -52.1,-54.27l-24.1 3.47c0.79,24.2 2.83,27.28 6.18,39.46 14.21,51.8 0.02,7.37 16.29,38.41 12.5,23.84 11.4,28.81 11.4,66.06l19.37 0z"/>
     <path class="fil14" d="M5388.78 6658.2c-4.59,57.82 -46.81,42.86 -104.95,42.37 -45.1,-0.37 -90.69,-1.14 -138.83,0.64l0.49 25.67 231.39 3.96c35.65,-38.89 83.39,-21.02 143.97,-21.02 16.33,-35.34 11.88,-109.06 11.88,-147.34 -27.18,-19.94 -99.44,-11.97 -163.81,-5.04l0.01 91.66 19.85 9.1z"/>
     <path class="fil22" d="M5917.4 7776.45l-24.06 1.47 -296.31 0.23 0 -162.36c-6.44,2.44 -26.6,7.74 -33.8,10.16 0,30.98 -2.06,70.08 0.18,100.17 3.08,41.39 9.75,42.64 8.28,84.36l-60.99 23.72 0 37.23 42.97 17.05c6.37,2.61 22.78,9.47 24.16,9.95 62.93,21.91 80.72,18.49 86.95,-13.43 -50.27,-4.32 -73.55,20.33 -84.62,-49.12 2.42,-2 5.33,-3.96 7.75,-5.37l15.21 -9.19c19.12,-8.65 35.35,-7.13 58.73,-0.43 105.18,30.13 168.41,-5.05 215.39,7.5 2.68,0.72 5.73,2.21 7.94,2.92 2.21,0.71 14.17,6.56 16.63,7.94 -11.73,-36.98 -31.36,-37.39 9.87,-23.54 25.21,8.46 -20.19,-2.68 24,3.2 -9.92,-31.06 -13.12,-17.6 -20.8,-33.79l0.57 -6.78c0.01,-1.06 1.41,-1.16 1.95,-1.89z"/>
     <path class="fil23" d="M5595.42 7398.04l-6.42 16.13c-4.6,19.26 -2.26,5.35 -3.91,23.78l21.3 16.29 46.01 -45.04c46.99,21.86 53.08,17.63 130.92,14.27 52.93,-2.28 104.18,6.4 149.01,11.08 -3.6,-35.29 -13.6,-47.87 -35.08,-68.53 -23.26,-22.36 -37.76,-26.53 -76.54,-24.17 -0.18,-0.19 1.25,-22.42 -62.07,-16.99 -62.07,5.33 -133.05,13.77 -163.22,73.18z"/>
     <path class="fil12" d="M4183.16 7007.9c-21.25,-31.76 -74.23,-11.66 -98.47,-1.72 -27.93,17.22 -53.75,40.39 -52.92,73.22 9.38,25.12 0.32,19.85 24.31,19.85l37.62 -53.9 69.05 -18.17 44.53 29.78c-41.39,31.64 -17.24,1.93 -26.81,25.4l34.47 16.93c-1.61,1.93 -4.21,2.14 -5.06,5.58l-9.66 10.59c-1.17,1.31 -3.3,3.23 -4.51,4.65l-23.1 80.78c-1.72,0.69 -4.89,-1.22 -5.52,0.74 -13.2,41.64 -8.18,1.19 -9.69,1.52 -31,6.75 38.35,-9.08 -15.72,4.89 -37.4,9.66 -32.75,2.05 -40.82,-6.75 0.3,20.11 -1.31,13.5 -1.98,24.26 -0.89,14.25 -6.61,5.78 -0.38,17.71 -7.26,-13.64 -3.7,-1.45 -25.44,-25.4 -13.96,19.98 -9.96,-11.08 -3.38,23.09 5.75,12.8 -0.49,1.47 9.24,13.96 0.93,1.2 2.66,3.18 3.67,4.41l20.12 23.05c40.09,-0.02 67.98,5.29 106.89,-7.99l13.98 -16.01 -40.5 -15.19c0.58,-34.25 8.28,-42.08 8.51,-76.2 39.48,0 29.45,-3.9 59.22,8.47 17.03,-36.66 -0.79,-21.82 17.09,-23.81 17.59,-1.96 15.19,10.98 15.74,27.52 0.51,-23.82 2.74,-56.21 0.52,-79.55 -3.82,-40.05 -13.61,-35.8 -28.31,-70.78 -6.94,-26.74 -8.55,-67.57 1.47,-89.35l-5.36 100.5c-12.14,-4.14 -26.42,-8.16 -36.73,-12.85l-32.07 -19.23z"/>
     <path class="fil24" d="M5973.02 7406.03c9.48,33.72 4.81,71 5.93,108.45 1.76,58.9 -9.01,57.06 -21.69,105.73 14.96,12.66 -3.08,-13.83 -5.64,74.76 3.13,-18.01 22.45,-13.3 51.49,-13.69 55.69,-0.73 44.57,10.05 67.58,18.64 0,-74.58 -72.8,-189.99 16.93,-203.2 0,-11.97 1.72,-59.35 -0.01,-67.34 -1.99,-9.12 6.58,-21.79 -24.74,-22.26 -47.63,-0.73 -23.95,42.28 -22.3,51.58 7.83,43.97 20.95,29.34 -27.62,40.5 0.79,-45.25 42.96,-132.68 -9.46,-137.4 -0.36,-1.69 37.78,-4.69 -33.86,-8.47l3.39 52.7z"/>
     <path class="fil25" d="M4031.77 7079.4c-1.18,2.13 -2.18,5.03 -2.66,6.8 -13.59,49.22 -5.87,130.21 40.57,154.75 -6.58,-34.17 -10.58,-3.11 3.38,-23.09 21.74,23.95 18.18,11.76 25.44,25.4 -6.23,-11.93 -0.51,-3.46 0.38,-17.71 0.67,-10.76 2.28,-4.15 1.98,-24.26 8.07,8.8 3.42,16.41 40.82,6.75 54.07,-13.97 -15.28,1.86 15.72,-4.89 1.51,-0.33 -3.51,40.12 9.69,-1.52 0.63,-1.96 3.8,-0.05 5.52,-0.74l23.1 -80.78c1.21,-1.42 3.34,-3.34 4.51,-4.65l9.66 -10.59c0.85,-3.44 3.45,-3.65 5.06,-5.58l-34.47 -16.93c9.57,-23.47 -14.58,6.24 26.81,-25.4l-44.53 -29.78 -69.05 18.17 -37.62 53.9c-23.99,0 -14.93,5.27 -24.31,-19.85z"/>
     <path class="fil26" d="M5493.25 7526.5c15.6,8.69 10.57,9.92 26.45,7.17 6.03,-77.81 44.21,-123.4 80.54,-177.86 16.91,-25.33 16.85,-28.72 48.76,-35.38 210.25,-43.89 252.13,31.92 280.57,38.71 7.32,-66.1 -73.01,-35.1 -83.03,-71.91 -10.22,-37.51 86.54,-27.36 66.71,-196.07 -4.61,-39.21 -5.96,-43.64 -46.9,-51.52 30.43,47.97 38.69,68.87 24.41,143.78 -10.5,55.05 -45.32,61.49 -76.76,92.5l18.46 6.3c-40.22,20.35 -11.18,31.04 -66.02,29.53 -42.46,-1.16 -35.73,-11.84 -63.81,-31.05l14.93 -2.73c-1.82,-2.16 -5.66,-6.7 -6.3,-10.63 -0.32,-1.97 -0.69,-2.76 -1.3,-4.04 -111.9,-47.53 -104.07,-260.03 30.88,-271.52 53.96,-4.6 66.7,28.81 109.63,45.12 -18.46,-47.32 -45.07,-58.07 -108.43,-54.52 -85.72,4.8 -61.67,12.48 -98.82,46 -40.35,36.41 -26.08,54.22 -20.14,121.76 2.18,24.67 4.04,48.68 8.06,68.8 13,65.05 14.52,7.04 24.15,66.61 -1.59,1.99 -4.34,2.03 -5.36,5.42l-22.25 17.35c-56.06,34.87 -27.84,6.7 -72.5,78.96 -29.72,48.09 -48.39,77.42 -61.93,139.22z"/>
     <path class="fil13" d="M5622.41 6331.39c27.18,-13.15 -5.02,-2.97 50.8,-61.11 -36.62,13.9 -46.76,49.04 -115.53,-20.56 -22.46,-22.74 -6.54,-8.09 -32.51,-56.36l24.11 -16.7c0.64,-0.23 3.25,-0.27 3.76,-0.4 0.49,-0.12 2.51,-0.33 3.62,0.13l-27.29 -1.88 11.95 -23.42 -8.31 -67.59 64 -8.71c-2.85,-41.41 -6.08,-61.12 39.37,-56.99l16.15 6.19c-3.86,-44.68 -6.27,-16.28 12.25,-26.21 15.14,17.2 7.85,-1.3 9.54,26.63 0.27,4.33 -3.89,15.63 -1.87,33.53 11.36,-6.23 17.47,3.71 24.8,8.42l1.76 84.62c-3.05,-6.43 -4.2,-4.64 -7.31,-24.75 -1.52,-9.8 -2.29,-24.06 -1.82,-34.01 1.17,-25.31 7.8,-48.75 12.58,-73.49 1.05,2.17 2.26,3.22 2.79,6.66l41.09 40.96c20.66,5.3 19.04,-7.18 20.04,-7.91 17.6,11.41 25.25,27.56 37.4,40.7l6.81 -28.6c-55.07,-118.61 -213.5,-105.29 -288.34,-11.2 -34.9,43.88 -44.55,109.92 -23.33,165.04 21.76,56.53 59.65,94.92 123.49,107.01z"/>
     <path class="fil16" d="M5597.23 7597.56l0.03 3.33 -0.23 14.9 0 162.36 296.31 -0.23c-24.28,-23.12 32.47,-16.76 -33.82,-18.19l-192.47 0 -35.44 0.7c-0.46,-93.91 -10.38,-92.44 20.9,-160.56 16.21,-35.31 -12.15,-68.34 29.21,-101.05l146.42 -8.69c54.42,-14.96 -14.4,-23.76 48.31,-19.41 4.84,5.52 23.01,-25.65 8.51,34.92l15.93 -2.83 -11.72 -35.02c-36.51,-10.88 -183.71,-13.31 -228.39,-1.11 -101.62,27.76 -7.87,53.21 -63.55,130.88z"/>
     <path class="fil27" d="M4948.9 7062.62l4.64 2.76c-2.78,-1.47 -6.02,-7.44 -8,-5.04 -19.98,24.17 9.31,-13.77 -44.67,-11.09 3.42,24.27 14.12,30.79 27.27,50l-76.15 0c-0.52,-2.42 -0.36,-8.7 -0.56,-7.39l-3.18 -19.26c-5.35,-20.42 -33.08,-45.03 36.57,-41.62 13.37,0.65 28.96,3.41 43.37,4.41l5.4 -28.64 -185.68 7.39c23.41,31.5 41.57,16.07 62.51,50.72 19.06,31.53 10.93,80.61 8.68,119.05l8.75 -16.43c12.37,-35.51 7.16,-32.26 7.16,-76.95 0.89,37.45 28.92,20.81 127.05,21.3 26.06,0.13 50.89,-0.11 76.79,-0.44l58.42 16.5 -1.33 -45.49 -23.4 17.4c6.97,-78.97 6.37,-17.74 -17.31,-42.8 11.12,48.84 26.85,30.23 -25.4,38.03 9.06,-36.39 7.12,-55.38 16.08,-93.62l-39.65 -3.82 -18.85 8.52c-0.13,-62.09 17.31,-228.25 -11.28,-272.64l4.29 -32.27 -5.67 177.96c-0.23,60.16 2.38,118.43 2.82,177.8 -14.72,13.85 20.4,20.2 -28.67,5.66z"/>
     <path class="fil28" d="M5519.7 7533.67l1.04 11.25c22.93,19.34 33.58,14.14 67.8,14.62l7.71 -10.24 3.81 -77.44c-21.71,16.43 -14.88,-16.02 -21.59,41.83 -3.27,28.14 8.94,6.41 -6.8,36.62l-25.42 -0.35c-8.15,-13.37 -7.7,16.39 -9.64,-27.22 -0.76,-17.02 0.29,-9 3.85,-21.94 0.61,-2.22 11.91,-29.61 14.63,-36.67 11.14,-28.83 11.72,-43.63 40.33,-66.09 30.17,-59.41 101.15,-67.85 163.22,-73.18 63.32,-5.43 61.89,16.8 62.07,16.99 38.78,-2.36 53.28,1.81 76.54,24.17 21.48,20.66 31.48,33.24 35.08,68.53 -44.83,-4.68 -96.08,-13.36 -149.01,-11.08 -77.84,3.36 -83.93,7.59 -130.92,-14.27l-46.01 45.04 1.66 9.86c36.73,-43.55 149.35,-22 209.28,-22.61 110.57,-1.14 109.85,12.24 107.08,121.51l6.02 0 26.97 -8.08c2.76,-28.53 5.28,-80.53 2.42,-108.09 -4.58,-44.34 -26.97,-44.71 -30.25,-87.69 -28.44,-6.79 -70.32,-82.6 -280.57,-38.71 -31.91,6.66 -31.85,10.05 -48.76,35.38 -36.33,54.46 -74.51,100.05 -80.54,177.86z"/>
     <path class="fil29" d="M5060.35 7780.67l-3.33 -45.87c0.79,-42.24 6.8,-95.77 -7.55,-130.77 -18.6,46.27 -11.42,103.84 -11.25,158.99l-22.98 0.85c-10.51,33.12 13.04,20.29 -24.03,23.6l107.06 42c1.52,-0.06 4,-0.32 5.61,-0.49 40.68,-4.23 20.22,-8.8 95.6,-8.09 65.4,0.61 66.1,7.15 98.72,6.14l87.53 7.83c11.47,-49.15 19.33,-25.92 18.28,-100.18 -0.68,-47.72 -1.98,-79.18 17.39,-110.46 -41.7,-8.44 -13.21,4.05 -27.51,-28.41l-1.62 -43.84 -4.07 -3.91 0.56 229.77 -328.41 2.84z"/>
     <path class="fil21" d="M4584.44 7037.44c-28.64,33.07 -25.45,56.66 -22.51,104.14 8.79,65.94 11.78,94.03 66.08,119.02 10.46,-14.29 5.68,-4.36 6.24,-17.42l-19.37 0c0,-37.25 1.1,-42.22 -11.4,-66.06 -16.27,-31.04 -2.08,13.39 -16.29,-38.41 -3.35,-12.18 -5.39,-15.26 -6.18,-39.46l24.1 -3.47c76.72,-25.33 -3.79,8.02 52.1,54.27l9.86 -18.03c35.85,-68.42 72.97,-38.95 7.54,-61.71 -15.23,-5.29 -63.67,-4.59 -27.57,-29.21l11.61 -6.03c5.01,-1.42 23.69,-3.56 40.89,-3.56 15.14,20.33 -8.3,-2.64 40.39,14.94 53.3,19.24 80.04,40.06 68.16,95.2 -14.92,69.23 -27.09,55.48 -49.28,67.7l0.37 56.56c16.43,-13.4 12.37,-9.53 25.27,-16.36 12.06,-23.33 22.98,-31.5 34.65,-65.64 2.25,-38.44 10.38,-87.52 -8.68,-119.05 -20.94,-34.65 -39.1,-19.22 -62.51,-50.72l-22.5 -8.28c-24.05,-14.4 1.24,-5.4 -34.23,-9.13 -12.52,-1.32 -26.9,-0.36 -39.45,0 -38.38,9.6 -43.08,20.85 -67.29,40.71z"/>
     <path class="fil20" d="M5264.48 7635.49l-123.22 -5.61c-7.74,-26.09 4.26,-3.01 -12.66,-26.09l-48.06 10.58c11.8,54.21 15.68,86.61 15.94,152.57 54.2,-5.94 92.5,-8.88 159.53,-9.63l8.47 -121.82z"/>
     <path class="fil7" d="M4995.88 7302.49c37.9,-0.24 56.02,-18.68 50.8,-50.8 -4.48,-27.54 4.01,9.67 -18.38,-17.62l-32.42 -75.56 -84.63 0c-0.05,54.43 -9.87,160.89 3.47,195.12 11.5,29.51 0.29,6.33 9.51,11.1 1.71,0.88 49.35,14.47 65.01,-11.54 9.72,-16.17 6.64,-26.65 6.64,-50.7z"/>
     <path class="fil30" d="M5006.26 6997.59c0.78,-1.2 9.24,-8.87 11.35,-11.32 28.93,-33.62 15.43,-97.24 20.04,-157.91l10.92 -6.62c27.1,3.98 24.25,3.86 47.1,8.46 41.23,-11.22 -7.76,26.28 54.25,-4.72l-25.24 -94 -148.55 1.99c28.59,44.39 11.15,210.55 11.28,272.64l18.85 -8.52z"/>
     <path class="fil31" d="M4183.16 7007.9l32.07 19.23c10.31,4.69 24.59,8.71 36.73,12.85l5.36 -100.5c-10.02,21.78 -8.41,62.61 -1.47,89.35 9.98,-15.61 23.56,-214.48 18.44,-240.99l6.17 -49.99c-31.73,-9.98 -27.99,-1.03 -52.54,-5.62l-15.63 -4.7c-2.25,-0.7 -14.07,-7.09 -16.63,-8.27l9.56 253.48c-6.87,38.44 11.61,17.03 -22.06,35.16z"/>
     <path class="fil32" d="M4280.46 6737.85l-6.17 49.99c33.68,40.35 4.33,188.25 31.04,232.2l5.47 -66.71c-3.31,27.17 -2.76,62.6 -2.66,85.78l48.8 5.98 9.29 -307.77 2.83 -16.87 0.29 -2.24 -1.6 25.82 -87.29 -6.18z"/>
     <path class="fil33" d="M4133.81 6063.6l14.95 -48.97c16.47,-22.7 25.2,-10.65 25.43,-33.37 17.65,-40.48 -9.13,-3.13 18.18,-26.82 4.67,-4.05 4.12,-4.25 18.16,-6.61 -17.13,-19.18 28.11,14.51 -11.87,0.64 -17.83,-6.18 0.86,14.83 -18.92,-12.99 -12.62,-17.76 -11.1,-30.58 -13.55,-57.67 -146.44,-32.81 -126.61,44.46 -122.79,103.89 30.51,19.9 44.4,3.4 52.2,54.46 4.85,31.77 -7.33,66.37 2.86,95.13 31.29,-9.44 7.78,1.59 24.82,-46.22 6.33,-17.75 5.22,-14.95 10.53,-21.47z"/>
     <path class="fil14" d="M5833.78 6275.07l22.37 2.92c-26.58,13.25 -7.67,-5.4 -13.52,33.86 1.89,-2.09 14.12,-11.01 16.76,-12.22 40.17,-18.46 28.38,-2.27 33.99,7.21 23.77,-58.99 -7.88,-2.25 37.79,-37.3 -4.05,-62.48 12.12,-33.88 -6.84,-33.85 -0.62,0 -5.57,2.04 -6.14,-0.01 -0.72,-2.61 -5.22,0.01 -7.83,-0.03 -3.23,-29.27 -11.88,-46.71 -11.88,-84.62 14.73,-12.09 2.62,-3.57 19.62,-11.59l12.56 -127.29 -88.03 11.92c-0.06,-1.31 5.58,7.14 -6.45,-10.66 -41.94,-62.03 27.86,44.85 -10.57,-14.74 -21.81,0 -15.81,-5.52 -19.72,14.33 6.38,17.75 1.97,7.45 13.75,25.28 5.2,7.88 10.95,14.66 17.17,25.4 46.96,81.05 22.85,140.22 -3.03,211.39z"/>
     <path class="fil34" d="M4375.19 6289.58c-27.25,7.57 -1.42,-3.74 -17.51,18.45 -13.71,18.91 -2.62,13.24 -25.73,23.28l2.51 0.33c33.46,-1.27 12.52,-3.94 17.29,12.87l27.5 10.94 65.53 8.15c23.49,21.06 14.68,12.22 26.24,41.38 48.59,-32.71 11.8,-17.88 29.26,-34.69 19.76,-19.03 18.34,5.46 28.02,-27.38 14.44,-48.98 -12.77,-92.59 -14.94,-191.92 -65.62,-14.59 -8.53,55.3 -66.09,194.73 -22.66,-12.66 -16.13,-9.41 -27.12,-33.78 4.32,3.32 -1.39,28.63 21.74,-3.65 15.4,-21.49 4.76,13.65 12.12,-38.69 -55.36,3.01 -31.65,10.72 -78.82,19.98z"/>
     <path class="fil35" d="M4063.49 6531.42c-5.88,36.91 -10.97,140.98 10.02,170.64l39.68 -4.02c2.03,-39.8 -5.38,-82.13 -4.6,-123.75 0.75,-39.84 11.75,-77.23 16.48,-114.97l-0.67 -14.63c-1.71,-25 -13.15,-61.34 18.79,-71.4 40.93,-12.88 53.28,25.84 64.72,44.79 12.33,17.25 10.36,18.08 22.13,34.31 19.02,26.21 11.61,36.71 18.18,11.09l0.08 -11.95 -39.64 -104.18 -13.21 1.35 -80.06 10.2c-27.06,40.18 -45.7,118.57 -51.9,172.52z"/>
     <path class="fil36" d="M5131.43 7318.69c-32.57,4.43 -22.42,-1.81 -39.86,14.13 42.85,7.43 122.43,-13.15 165.38,3.33 22.97,8.82 74.34,27.24 89.81,46.03 27.08,32.88 13.08,-25.02 21.65,47.26l-254.51 0.94c-27.73,7.31 -16.28,2.11 -33.27,16.95 58.56,-8.37 118.55,-4.82 177.76,-5.04 66.06,-0.25 103.03,-13.8 128.53,38.04 9.93,13.18 8.08,0.86 14.31,25.16 1.81,7.06 1.08,29.57 1.09,32.39 20.68,-4.95 35.68,-13.2 49.03,-2.06 6.71,-58 -43.67,-142.97 -82.86,-174.41 -2.04,-44.81 -67.25,-29.29 -103.53,-51.17l-74.8 2.91 -58.73 5.54z"/>
     <path class="fil24" d="M4864.17 7644.13c-18.41,139.1 25.95,75.03 30.65,72.73l-0.86 50.79c25.96,-6.44 19.81,-25.74 21.8,2.98l83.1 2.59 -2.53 -148.96c-13.22,-1.02 -46.73,-13.89 -75.82,-3.3 -53.57,19.52 5.96,25.7 -56.34,23.17z"/>
     <path class="fil0" d="M3932.92 7569.52l6.79 -14.44 -3.02 -32.5c6.52,51.58 -1.44,30.38 -24.5,42.33 -2.92,-25.65 -8.51,-25.11 -8.51,-59.27l-126.96 0 -0.03 135.47c27.86,0 88.39,7.4 110.41,-5.74l26.79 -46.01c0.8,-1.34 2.2,-3.43 3.07,-4.65 18.42,-25.68 -14.65,0.99 15.96,-15.19z"/>
     <path class="fil37" d="M5709.96 7263.3c-17.43,-62.33 -27.01,-18.75 -41.5,-71.74 -26.17,-95.64 -24.13,-102.7 31.33,-150.4 32.07,-27.57 37.41,-24 89.98,-16.01l11.87 27.96c12.36,3.73 29.81,6.25 37.89,9.63 21.88,9.16 9.7,3.15 20.12,14.94 5,1.35 16.97,-15.2 11.31,55.2 -9.26,115.03 -48.16,114.12 -86.7,128.3l14.6 18.46 15.14 -3.72c31.44,-31.01 66.26,-37.45 76.76,-92.5 14.28,-74.91 6.02,-95.81 -24.41,-143.78l-15.88 -2.74c-42.93,-16.31 -55.67,-49.72 -109.63,-45.12 -134.95,11.49 -142.78,223.99 -30.88,271.52z"/>
     <path class="fil34" d="M5589.85 5930.94c25.66,11.38 5.1,-2.82 19.93,10.74 17.17,15.71 7.12,5.67 21.1,27.65 63.03,-17.68 105.22,9.05 147.99,31.29l14.41 -25.06c18.85,-37.66 14.42,-30.42 10.34,-61.6 -29.89,-6.56 -60.04,0.51 -113.41,-5.64 -164.76,-18.98 -57.92,-48.49 -158.36,-51.09 -21.42,87.16 21.64,30.5 58,73.71z"/>
     <path class="fil15" d="M4293.62 6557.38c18.46,18.42 -26.5,79.28 -0.47,101.65 -8.62,53.63 19.55,24.84 -45.63,38.08 -13.6,2.76 -40.3,6.16 -55.97,-4.26 0.05,40.23 -5.56,5.39 10.63,15.03l167.17 10.33 -0.29 2.24c14.86,-7.16 10.52,-3.41 18.56,-7.15 14.35,-6.68 11.98,-5.6 20.64,-11.94 -2.49,-54.16 8.04,-118.03 -6.93,-167.67l-4.7 -22.03c-15.94,76.81 18.35,96.52 -86.51,96.52 -12.41,-14.98 -8.65,-7.02 -16.23,-31.73 -1.34,-4.37 -0.39,-14.87 -0.27,-19.07z"/>
     <path class="fil38" d="M4246.97 6212.04c-3.13,13.52 6.89,3.45 -9.04,11.85 -13.6,7.17 -11.46,3.72 -29.37,5.38l-11.99 44.14c3.11,1.68 5.28,1.81 5.85,4.16 0.57,2.33 3.36,2.93 4.16,3.62 37.65,32.87 28.1,15.61 26.86,47.55l0 6.51 20.47 5.86c18.17,-8.08 8.1,-3.44 30.81,-8.82 2.25,1.82 6.88,0.43 7.76,3.92 4.64,18.47 2.62,1.11 11.58,8l30.4 -12.57 -2.51 -0.33 -10.11 -33.98 36.59 -68.57c-19.84,-0.86 -16.33,5.21 -36.41,-4.38 -27.01,-12.89 -0.75,14.97 -9.18,-16.74 13.2,-37.12 5.61,-12.49 -11.27,-19.16l-16.85 -11.48c-28.97,0.4 -8.28,-2.99 -15.97,10.66l-4.22 14.17c-4.2,21.09 1.95,18.23 -17.56,10.21z"/>
     <path class="fil18" d="M4276.3 7446.9c31.36,12.36 19.45,-3.29 34.78,29.25 15.45,28.61 10.16,24.5 9.21,63.08 37.31,-17.59 17.3,-9.59 61.11,-16.01 -2.79,-47.43 -41.49,-111.27 -59.46,-138.75 -43.59,-66.69 -37.48,-48.95 -127.6,-70.38 -26.91,-5.53 -56.6,-14.9 -69.49,8.82l120.03 13.49 -16.88 20.02c-31.16,19.71 -7.39,8.81 -11.01,-3.09 61.22,9.84 16.94,-17.25 39.84,41.91 0.93,2.41 7.16,19.7 7.3,21.67l-9.84 29.47 22.01 0.52z"/>
     <path class="fil29" d="M4327.01 7793.51c-59.25,0 -118.5,0.01 -177.76,0l-154.9 0.04 34.74 47.34c9.95,-13.36 -3.25,-5.72 16.3,-12.51 54.12,-18.8 242.76,3.44 265.76,2.12 16.37,-0.93 7.3,0.82 16.13,-3.08l-82.49 -9.07c27.86,-8.58 40.11,-3.65 64.99,-17.66l56.21 -32.54c-12.99,-52.6 14.16,-100.24 -12.51,-135.07l-26.47 -34.22 0 194.65z"/>
     <path class="fil39" d="M4174.19 5981.26c-0.23,22.72 -8.96,10.67 -25.43,33.37l-14.95 48.97 0.73 78.21 19.61 -1.14c-4.82,-92.92 12.19,-101.58 43.39,-142.25 217.39,15.39 205.43,-1.84 208.37,158.53l-3.52 20.34c16.21,3.77 15.33,-10.78 23.23,19.26 5.6,21.31 -10.84,19.43 -6.47,13.75l-5.67 33.82c22.62,-10.89 27.09,-3.57 30.22,-36.41 3.04,-31.98 3.66,0.36 -6.56,-21.26 -29.34,-62.08 1.3,-61.55 -9.22,-118.53 -5.25,-28.42 -21.63,-45.38 -43.61,-58.61 -69.47,-41.81 -19.64,-15.44 -45.5,-47.63 -37.61,-2.4 -122.69,16.3 -164.62,19.58z"/>
     <path class="fil40" d="M4562.19 6438.94c-9.6,34.63 -6.24,38.62 -35.63,55.61l-12.37 -38.68 -18.65 38.42c13.33,-13.87 -16.16,-5.21 -26.86,-1.24 26.3,27.92 38.04,46.78 58.17,74.73l37.23 -2.54 71.73 -133.88c2.6,-20.14 -4.91,1.58 4.08,-19.37 5.99,-13.95 4.51,-7.07 12.39,-14.94l-6.58 -10.81 -52.37 -20.65c-2.43,27 -13.32,52.78 -31.14,73.35z"/>
     <path class="fil41" d="M4635.81 6431.36c35.81,22.44 31.83,-12.73 44.6,34.51 4.79,17.71 2.45,61.94 1.93,81.9 -0.6,34.08 -2.68,12.39 9.95,19.93 1.79,-11.75 -0.16,-11.34 4.17,-22.42 4.23,-10.83 7.29,-13.38 10.21,-17.73l17.12 -92.79 19.87 31.16 32.08 5.63c2.33,-40.8 4.87,-5.55 -4.26,-49.37l15.09 19.85c19.68,17.83 25.13,14.77 49.53,6.52l-5.56 -15.17c-0.51,-1.04 -3.01,-2.73 -3.43,-5.78 -0.47,-3.34 -2.75,-4.1 -3.7,-6.36 29.31,1.8 75.65,-5.44 100.41,9.19l-22.24 6.02c-2.77,0.5 -4.97,0.54 -7.83,1 -2.86,0.47 -5.04,0.27 -7.85,0.72 -23.47,3.76 -7.82,-10.47 -32.95,9.19 35.69,27.78 22.42,0.37 75.24,9.28l-0.38 -9.74c2.61,-33.04 -3.58,-17.68 10.38,-27.62 -18.35,-12.91 -7.5,-7.88 -35.41,-11.04l-195.04 -0.2c-28.24,1.32 -51.8,11.18 -55.46,-10.99 -7.88,7.87 -6.4,0.99 -12.39,14.94 -8.99,20.95 -1.48,-0.77 -4.08,19.37z"/>
     <path class="fil42" d="M4579.13 7408.96c26.33,19.82 165.98,11.38 226.36,14.73 -9.89,-54.88 4.51,-81.52 -67.5,-87.07 -50.99,-3.93 -110.7,8.95 -156,-8.22l-0.94 16.38c15.35,22.86 45.47,-8.16 101.56,-6.7 -2.1,2.71 -4.81,3.03 -6.51,7.98l-13.21 13.73c-20.12,13.1 13.62,8.33 -30.53,9.33l-56.36 -7.32c-1.31,2.7 -14.24,10.33 -1.33,27.01 35.67,46.1 6.84,3.11 7.54,3.21 17.83,2.57 111.99,-33.96 129.26,12.07l-132.34 4.87z"/>
     <path class="fil43" d="M5006.26 6997.59l39.65 3.82 104.96 2.35 50.38 -6.11 0.23 -8.47 -44.65 0c-5.2,-12.52 -21.09,-15.64 -23.12,-18.43 -16.14,-22.18 -11.77,-14.32 -40.05,-28.68l2.01 -111.87c-22.85,-4.6 -20,-4.48 -47.1,-8.46l-10.92 6.62c-4.61,60.67 8.89,124.29 -20.04,157.91 -2.11,2.45 -10.57,10.12 -11.35,11.32z"/>
     <path class="fil44" d="M4364.15 6392.94c29.35,11.68 54.13,12.13 35.58,63.72 -18.54,51.58 -12.36,26.95 -17.15,98.58 -54.74,6.82 -9.3,24.02 -71.87,10.85 7.55,-25.24 15.81,-53.45 26.64,-74.96 16.8,-33.4 22.7,-27.98 17.76,-63.01 -28.18,10.21 -2.23,-10.32 -21.84,15.7 -0.33,0.44 -8.39,19.32 -11.13,24.11 -18.31,32.8 -23.2,27.82 -33.3,42.9l4.78 46.55c-0.12,4.2 -1.07,14.7 0.27,19.07 7.58,24.71 3.82,16.75 16.23,31.73 104.86,0 70.57,-19.71 86.51,-96.52l4.7 22.03c15.86,-25.25 7.21,-20.43 16.12,-48.4 14.57,-45.8 -2.28,-19.22 19.54,-29.4 -16.93,-48.97 6.52,-18.73 3.38,-59.68 -1.77,-23.08 -14.68,-26.24 -34.82,-24.86l39.23 -7.75 -65.53 -8.15c2.57,24.29 4.69,4.85 -3.43,22.86 -0.82,1.82 -1.89,24.63 -7.36,9.8 -0.51,-1.37 -3,3.12 -4.31,4.83z"/>
     <path class="fil45" d="M4154.15 6140.67l6.17 29.9 12.78 3.69 3.44 -3.35c-0.88,-3.21 -6.2,-33.15 -6.3,-34.6l9.67 -30.68c-14.73,-30.9 34.44,-35.43 54.01,-73.18l50.76 0c18.03,22.15 21.44,14.44 50.8,8.47 -17.46,25.14 -13.75,5.81 -16.89,33.87 38.61,-8.49 13.83,2.03 25.4,-25.4l45.79 16.2 -0.64 42.49 -3.51 29.07c6.42,10.9 10.33,11.54 20.28,19.8 -2.94,-160.37 9.02,-143.14 -208.37,-158.53 -31.2,40.67 -48.21,49.33 -43.39,142.25z"/>
     <path class="fil45" d="M4179.91 6105.63l6.96 -3.02c6.53,-24.75 -4.19,-4.45 92.64,9.21 61.44,8.67 70.56,-17.89 109.63,-3.74l0.64 -42.49 -45.79 -16.2c-11.57,27.43 13.21,16.91 -25.4,25.4 3.14,-28.06 -0.57,-8.73 16.89,-33.87 -29.36,5.97 -32.77,13.68 -50.8,-8.47l-50.76 0c-19.57,37.75 -68.74,42.28 -54.01,73.18z"/>
     <path class="fil30" d="M5095.67 6830.2l-2.01 111.87c28.28,14.36 23.91,6.5 40.05,28.68 2.03,2.79 17.92,5.91 23.12,18.43l44.65 0 -51.56 -163.7c-62.01,31 -13.02,-6.5 -54.25,4.72z"/>
     <path class="fil46" d="M4564.08 6565.24c-23.47,20.7 29.8,17.54 -28.77,17.54 26.61,-0.38 20.45,-12.78 17.27,29.11 12.09,-17.89 3.19,-15.56 28.47,-34.69l24.56 70.66 91.37 -1.45c-14.32,-26.74 -9.9,-0.16 -7.34,-37.46l-90.37 2.68c4.12,-36.03 30.15,-120.5 54.39,-145.13l28.68 81.27c0.52,-19.96 2.86,-64.19 -1.93,-81.9 -12.77,-47.24 -8.79,-12.07 -44.6,-34.51l-71.73 133.88z"/>
     <path class="fil47" d="M5608.05 7464.1l-7.99 7.76 -3.81 77.44 0.98 48.26c55.68,-77.67 -38.07,-103.12 63.55,-130.88 44.68,-12.2 191.88,-9.77 228.39,1.11l11.72 35.02c19.79,26.55 31.68,225.27 16.51,273.64 10.09,-20.09 6.27,-12.03 6.82,-41.6 0.35,-19.18 -0.65,-40.31 -0.69,-59.82 -0.07,-37.35 1.08,-74.7 0.88,-112.03 2.77,-109.27 3.49,-122.65 -107.08,-121.51 -59.93,0.61 -172.55,-20.94 -209.28,22.61z"/>
     <path class="fil48" d="M4113.19 6698.04c7.34,10.5 16.3,-21.81 9.51,31.3 10.67,1.03 27.48,5.31 35.11,4.49 44.14,-4.75 17.13,12.4 28.47,-17.12l-33.1 -6.89c-0.51,-42.16 0.05,-84.68 -0.11,-127.05 -0.19,-49.39 -10.05,-73.8 -13.28,-116.46l-14.72 -6.99c-4.73,37.74 -15.73,75.13 -16.48,114.97 -0.78,41.62 6.63,83.95 4.6,123.75z"/>
     <path class="fil49" d="M4471.03 7088.35c5.48,15.79 17.13,58.29 22.81,67.76 4.03,6.69 16.91,20.42 27.17,16.79 24.41,-8.62 2.73,-5.15 1.66,-5.88 -7.92,20.04 -7.01,30.72 -17.77,50.84 -55.9,7.35 -22.98,15.71 -60.15,-9.35l2.99 43.29c50.56,15.94 34.28,27.32 95.19,13.41 12.13,-60.12 6.05,-32.75 -5.6,-89.89 -6.55,-32.09 -7,-70.07 -15.5,-92.84l-50.8 5.87z"/>
     <path class="fil27" d="M4394.66 7044.72l9.9 31.51 -107.92 2.49c-2.85,16.71 -6.58,-0.67 6.5,22.01l167.89 -12.38 50.8 -5.87 25.96 -5.74c-0.56,1.42 -1.1,25.2 -0.04,30.32 7.21,35.02 -0.17,14.62 14.18,34.52 -2.94,-47.48 -6.13,-71.07 22.51,-104.14 -26.3,-9.34 -10.57,1.15 -25.26,-10.48 -18.84,12.6 -15.89,4.95 -24.91,33.48l-12.48 -22.57c-21.5,18.01 0.41,9.57 -34.16,13.31 -22.06,2.39 -54.46,-10.3 -92.97,-6.46z"/>
     <polygon class="fil50" points="4897.07,6613.57 4941.76,6608.23 4940.08,6481.23 4850.31,6467.93 "/>
     <path class="fil51" d="M5052.03 7497.26l3.67 50.76 -48.15 5.46c2.22,1.74 7.5,6.64 8.53,7.66l10.61 12.28c-16.55,13.33 10.44,1.36 -25.9,16.85 -30.05,12.8 -63.79,9.31 -89.49,0.04l13.49 -38.99 -4.18 -10.67 -4.44 0c-18.45,22.45 -35.67,14.52 -67.43,14.09l2.11 40.84c12.34,5.8 17.1,-9.48 9.65,11.45 44.68,6.99 145.25,6.65 188.97,-3 14.35,35 8.34,88.53 7.55,130.77l3.33 45.87 2.28 -305.12 -10.6 21.71z"/>
     <path class="fil52" d="M5451.35 7535.82c-9.89,26.62 -30.59,18.62 -59.08,16.15l1.62 43.84c53.26,10.51 40.26,12.64 101.46,9.49 37.37,-1.93 63.95,1.23 101.91,-4.41l-0.03 -3.33 -0.98 -48.26 -7.71 10.24c-12.99,41.21 -77.75,25.39 -96.21,13.88 7.29,-38.47 -9.85,-21.73 28.41,-28.5l-1.04 -11.25c-15.88,2.75 -10.85,1.52 -26.45,-7.17 -4.51,16.56 -26.77,9.68 -41.9,9.32z"/>
     <path class="fil42" d="M4355.11 6428.12c4.94,35.03 -0.96,29.61 -17.76,63.01 -10.83,21.51 -19.09,49.72 -26.64,74.96 62.57,13.17 17.13,-4.03 71.87,-10.85 4.79,-71.63 -1.39,-47 17.15,-98.58 18.55,-51.59 -6.23,-52.04 -35.58,-63.72l-9.04 35.18z"/>
     <path class="fil26" d="M5048.39 6539.32c-1.61,17.55 0.08,28.53 -1.7,44.17 -4.83,42.64 -2.57,15.12 -8.44,24.71 -26.13,-12.4 -13,13.43 -20.09,-24.66 -3.31,-17.77 0.55,-28.12 3.67,-45.34 -1.45,1.84 -3.54,4.16 -4.62,5.3l-14.54 13.69 1.54 7.45 -1.35 44.31 -2.51 5.73 95.85 1.26c15.45,-40.58 8.66,-72.7 9.74,-116.69l-12.27 -18.87 -34.87 4.36 -10.41 54.58z"/>
     <path class="fil53" d="M4689.64 6608.95l2.65 -41.25c-12.63,-7.54 -10.55,14.15 -9.95,-19.93l-28.68 -81.27c-24.24,24.63 -50.27,109.1 -54.39,145.13l90.37 -2.68z"/>
     <path class="fil54" d="M4729.61 6987.79c1.73,-0.13 22.17,-2.68 25.1,-3.39 2.18,-0.54 4.43,-1.12 6.53,-1.77l33.69 -17.49c12.34,-77.37 3.09,-50.13 1.87,-86.2 -2.17,-63.7 20.15,-27.59 18.06,-93.89l-24.55 -4.9 -60.7 207.64z"/>
     <path class="fil38" d="M4242.35 6137.69c-8.57,21.58 9.8,17.13 -23.24,17.85 33.53,-2.16 59.86,6.35 91.52,0.49 40.49,-7.51 -0.55,2.67 15.71,-11.59 25.01,-21.94 24.79,1.54 25.04,1.77 8.66,3.12 16.37,4.05 26.47,10.81 4.53,-6.44 4.78,-2.3 7.78,-19.87l3.51 -29.07c-39.07,-14.15 -48.19,12.41 -109.63,3.74 -96.83,-13.66 -86.11,-33.96 -92.64,-9.21l-11.84 39.62c32.63,-14.67 14.35,-2.08 25.39,-28.25l41.93 23.71z"/>
     <path class="fil11" d="M5541.32 6151.09l46.39 -2.39 3.37 -65.42c2.85,0.62 -6.86,7.16 13.42,0.03l31.09 -0.79c0.62,1.26 2.54,4.58 3.79,6.89 2.22,-1.82 6.9,-5.78 7.82,-3.57 0.91,2.17 4.18,-2.29 12.32,-8.89 -0.83,-30.32 4.39,-31.19 -6.99,-52.96l-16.15 -6.19c-45.45,-4.13 -42.22,15.58 -39.37,56.99l-64 8.71 8.31 67.59z"/>
     <path class="fil55" d="M4063.49 6531.42c6.2,-53.95 24.84,-132.34 51.9,-172.52l80.06 -10.2c-3.12,-17.71 15.37,-34.42 -37.22,-36.55 -70.53,-2.85 -78.01,66.78 -98.08,99.49l-9.36 15.31c-1,1.86 -2.22,4.14 -3.16,6.09l15.86 98.38z"/>
     <path class="fil56" d="M5150.87 7003.76c-1.47,1.88 -3.48,4.26 -4.55,5.53l-35.91 41.99 21.95 27.23c13.85,18.69 -2.05,8.63 15.96,20.74l56.34 -38.49c18.17,-8.36 12.24,23.95 24.65,-19.44 4.85,-16.97 -0.8,-16.36 -2.72,-19.74l-18.96 -15.47 22.85 -5.69 -3.76 -8.45 -25.47 5.68 -50.38 6.11z"/>
     <path class="fil57" d="M5280.74 7277.08c11.27,13.35 9.12,1.84 -3.16,18.3 -13.32,17.87 0.8,-9.04 -12.62,14.86 36.28,21.88 101.49,6.36 103.53,51.17 12.02,-5.08 35.22,-15.24 26.9,-36.42 -7.61,-19.38 -35.36,-20.89 -51.3,-21.02 19.64,-11.54 32.94,12.37 49.72,-52.24l-39.98 23.7c-3.5,2.06 -5.85,3.37 -8.77,5.07 -2.95,1.72 -5.79,3.7 -8.95,5.01 3.93,-30.29 2.16,-30.55 -8.22,-45.21l-47.15 36.78z"/>
     <path class="fil51" d="M4365.05 7551.96l-38.53 3.41 -2.43 45.4c37.15,8.43 160.47,26.01 192.56,-1.95 -1.65,-41.78 -4.3,-37.37 -50.55,-42.81l-16.57 -13.09 -23.23 -11.06c-43.69,-9.66 -32.73,2.93 -42.57,14.46 27.37,-0.13 95.73,12.42 107.49,48.36l-124.7 -3.06 -1.47 -39.66z"/>
     <path class="fil58" d="M4451.33 7502.73l1.2 -3.19c6.92,-36.69 26.25,-71.46 45.7,-101.52 21.66,-33.48 37.14,-80.87 83.76,-69.62 2.12,-12.87 -30.02,-8.16 24.42,-11.16l-8.42 -23.18c-66.14,-11.39 -86.31,28.37 -112.7,83.09 -10.58,21.94 -31.88,48.21 -39.43,64.19 -7.3,15.45 0.68,-4.97 -6.62,20.31l-23.13 40.86c-0.7,-1.51 -3.37,2.92 -5.01,5.04l40.23 -4.82z"/>
     <path class="fil12" d="M4209.6 7274.38l23.7 -9.75c1.37,-2.03 3.54,-7.43 4.25,-5.97l46.09 -79.5c-0.55,-16.54 1.85,-29.48 -15.74,-27.52 -17.88,1.99 -0.06,-12.85 -17.09,23.81 -29.77,-12.37 -19.74,-8.47 -59.22,-8.47 -0.23,34.12 -7.93,41.95 -8.51,76.2l40.5 15.19 -13.98 16.01z"/>
     <path class="fil59" d="M5270.23 6613.94l41.73 -1.88 1.34 -148.75c-4.91,-48.78 1.52,-24.25 -21.05,-33.75 -23.73,11.24 -11.08,-16.04 -18.88,25.59 -4.62,24.7 10,92.54 -3.14,158.79z"/>
     <path class="fil60" d="M4579.13 7408.96l132.34 -4.87c-17.27,-46.03 -111.43,-9.5 -129.26,-12.07 -0.7,-0.1 28.13,42.89 -7.54,-3.21 -12.91,-16.68 0.02,-24.31 1.33,-27.01l56.36 7.32c44.15,-1 10.41,3.77 30.53,-9.33l13.21 -13.73c1.7,-4.95 4.41,-5.27 6.51,-7.98 -56.09,-1.46 -86.21,29.56 -101.56,6.7 -17.48,7.89 -45.69,26.1 -49.04,44.03 -8.28,44.43 0.07,17.18 4.4,26.95 26.08,7.48 16.37,5.19 42.72,-6.8z"/>
     <path class="fil61" d="M5859.65 7077.68c-10.42,-11.79 1.76,-5.78 -20.12,-14.94 -8.08,-3.38 -25.53,-5.9 -37.89,-9.63l-52.15 12.35c10.93,33.8 3.68,13.45 19.25,33.15l22.81 38.41c8.58,17.58 -16.67,-17.78 6.76,12.73 18.83,24.52 -17.26,-0.32 18.87,15.31 21.41,-17.09 40.92,-47.33 16.9,-82.7l25.57 -4.68z"/>
     <path class="fil62" d="M4864.17 7644.13c62.3,2.53 2.77,-3.65 56.34,-23.17 29.09,-10.59 62.6,2.28 75.82,3.3 1.61,2.57 3.3,3.33 3.9,8.21 1.51,12.24 10.98,1.36 8.38,68.48 -0.99,25.55 -5.89,43.44 6.63,62.92l22.98 -0.85c-0.17,-55.15 -7.35,-112.72 11.25,-158.99 -43.72,9.65 -144.29,9.99 -188.97,3 13.21,21.27 -22.92,17.11 31.89,17.19 -13.5,13.03 -1.99,7.89 -28.22,19.91z"/>
     <path class="fil63" d="M5045.91 7001.41c-8.96,38.24 -7.02,57.23 -16.08,93.62 52.25,-7.8 36.52,10.81 25.4,-38.03 23.68,25.06 24.28,-36.17 17.31,42.8l23.4 -17.4 14.47 -31.12 35.91 -41.99c1.07,-1.27 3.08,-3.65 4.55,-5.53l-104.96 -2.35z"/>
     <polygon class="fil64" points="4706.67,6527.55 4712.71,6592.08 4777.58,6597.58 4765.62,6555.93 4751.23,6498.2 4743.66,6465.92 4723.79,6434.76 "/>
     <path class="fil44" d="M4301.7 6643.48c-5.15,13.96 -10.51,25.74 -5.31,41.8 3.5,10.78 -3.16,38.13 65.68,19.17 3.3,-0.91 11.97,-4.21 13.87,-5.01l12.96 -6.55c-1.03,-10.21 -2.5,-35.55 -2.58,-56.47 -25.19,-9.49 -43.93,-15.06 -84.62,7.06z"/>
     <path class="fil65" d="M4634.25 7243.18c-0.56,13.06 4.22,3.13 -6.24,17.42l-8.1 5.04c56.27,21.71 63.94,25.82 130.43,8.75 -29.69,-2.53 -58.64,-25.76 -84.58,-40.63 11.69,-12.34 26.84,-46.7 -16.97,-70 -40.32,18.41 -21.83,33.52 -14.54,79.42z"/>
     <path class="fil26" d="M5930.43 7563c-3.09,36.22 -1.59,69.19 26.83,57.21 12.68,-48.67 23.45,-46.83 21.69,-105.73 -1.12,-37.45 3.55,-74.73 -5.93,-108.45 -12.32,-20.71 -14.24,-40.77 -43.45,-46.89 3.28,42.98 25.67,43.35 30.25,87.69 2.86,27.56 0.34,79.56 -2.42,108.09l-26.97 8.08z"/>
     <path class="fil66" d="M4376.64 6215.58c-7.27,15.4 14.55,2.73 -18.21,13.18l-36.59 68.57 10.11 33.98c23.11,-10.04 12.02,-4.37 25.73,-23.28 16.09,-22.19 -9.74,-10.88 17.51,-18.45 8.52,-15.57 28.98,-37.12 38.29,-45.46l5.67 -33.82c-4.37,5.68 12.07,7.56 6.47,-13.75 -7.9,-30.04 -7.02,-15.49 -23.23,-19.26 -0.79,1.72 -8.65,20.86 -9.13,21.6 -1.76,2.7 -1.82,26.27 -10.23,11.19 -0.92,-1.67 -4.23,3.7 -6.39,5.5z"/>
     <path class="fil67" d="M5012.9 6180.26l-14.45 14.63c38.02,-4.6 14.37,-16.22 23.41,23.75l-37.91 -4.8 3.26 0.06 6.56 9.68c10.63,16.73 9.04,22.41 17.08,37.85l25.72 -2.62 9.19 -0.55 23.47 -5.59 13.09 0.84 16.52 -44.52 -25.1 -31.65c-14.2,0.39 -9.21,-2.76 -26.34,0.9 -30.08,6.42 -4.82,0.04 -16.9,7.47l-17.6 -5.45z"/>
     <path class="fil58" d="M4758.9 7320.7c65.04,10.43 62.34,10.26 94.18,57.05 9.5,13.96 16.89,25.55 26.88,41.3 14.1,22.23 11.82,29.23 32.73,47.54l6.99 -37.06c-25.54,-18.89 -45.28,-89.89 -45.66,-90.41 -16.39,-22.54 -82.87,-59.96 -115.12,-18.42z"/>
     <path class="fil63" d="M4953.54 7065.38c0,-41.97 12.05,-46.1 -19.95,-58.63l-5.4 28.64c-14.41,-1 -30,-3.76 -43.37,-4.41 -69.65,-3.41 -41.92,21.2 -36.57,41.62l3.18 19.26c0.2,-1.31 0.04,4.97 0.56,7.39l76.15 0c-13.15,-19.21 -23.85,-25.73 -27.27,-50 53.98,-2.68 24.69,35.26 44.67,11.09 1.98,-2.4 5.22,3.57 8,5.04z"/>
     <path class="fil68" d="M5251.39 6239.6l-18.81 -6.21 3.71 30.39 6.68 -2.64c27.78,20.18 25.25,11.18 18.35,50.71l-36.18 0.22 3.61 30.32c4.42,22.7 -9,10.07 12.66,10.87 18.26,0.68 32.94,-14.25 41.98,-23.74 1.74,-1.81 6.72,-8.23 8.33,-9.95 1.35,-1.45 3.91,-3.82 5.05,-5.03 1.22,-1.27 3.59,-3.52 5.47,-5.19 -0.21,-23.64 6.26,-24.33 3.44,-44.79 -1.38,-10.03 -7.63,-18.75 -10.45,-36.59 -15.24,12.07 3.49,4.68 -22.35,10.84 -21.46,5.11 18.16,-3.57 -21.49,0.79z"/>
     <path class="fil35" d="M4436.99 6455.89l31.69 37.16c10.7,-3.97 40.19,-12.63 26.86,1.24l18.65 -38.42c-25.42,-11.62 -20.62,-37.03 -43.17,-50.89 -11.56,-29.16 -2.75,-20.32 -26.24,-41.38l-39.23 7.75c20.14,-1.38 33.05,1.78 34.82,24.86 3.14,40.95 -20.31,10.71 -3.38,59.68z"/>
     <path class="fil69" d="M5820.71 7341.85l-29.29 10.3c-0.08,3.62 -0.67,4.68 -0.72,8.57 -0.06,3.79 -0.83,5.27 -0.86,7.23l1.99 44.56c54.5,0 77.72,9.85 109.98,-16.89 -6.54,-13.19 6.1,-31.04 -41.26,-31.09 -2.02,0 -4.78,0.89 -6.55,1.12 -2.26,0.29 -8.96,3.22 -11.42,4.61l-21.87 -28.41z"/>
     <path class="fil70" d="M4829.69 6515.15l-2.99 12.93c-1.31,47.91 9.98,40.08 19,82.09l51.37 3.4 -46.76 -145.64 -20.62 47.22z"/>
     <path class="fil10" d="M5190.7 6237.07c0.1,0.08 18.89,3.72 16.29,13.66 -0.35,1.36 -4.77,4.73 -6.89,7.33 -25.59,2.73 0.49,-3.21 -11.29,14.96l9.66 15.37 34.47 -2.68c-13.97,-17.95 16.32,-18.19 -15.01,-14.71l18.36 -7.22 -3.71 -30.39 18.81 6.21c0.64,-2.21 2.16,-7.75 2.52,-6.42 0.35,1.27 2.06,-4.83 2.5,-6.07 8.66,-24.23 9.71,-13.69 -1.5,-42.59l-7.15 -4.79c-19.12,10.07 14.02,4.08 -14.05,2l-23.2 -2.55c-1.25,2.05 -3.03,2.83 -3.73,6.18 -0.68,3.27 -2.89,4.67 -3.85,5.89 -0.93,1.17 -2.84,4.23 -3.98,5.57 -11.39,13.36 -4.16,7.08 -16.72,14.65l8.47 25.6z"/>
     <path class="fil71" d="M4191.14 6292.86c-14.02,-46.92 7.86,26.05 -7.71,-20.57 -1.24,-3.68 -2.84,-4.28 -4.92,-16.39 -1.25,-7.33 -0.53,-28.75 -0.66,-29.68l7.62 -6.16c-14.24,-8.31 -8.96,0.11 -18.39,-19.65 -1.31,-2.75 -5.14,-23.22 -6.76,-29.84l-6.17 -29.9 -19.61 1.14 -24.85 43.09c14.77,33.44 13.64,28.73 36.83,53.64 28.82,30.95 9.53,47.82 44.62,54.32z"/>
     <path class="fil72" d="M5600.06 7471.86l7.99 -7.76 -1.66 -9.86 -21.3 -16.29c1.65,-18.43 -0.69,-4.52 3.91,-23.78l6.42 -16.13c-28.61,22.46 -29.19,37.26 -40.33,66.09 -2.72,7.06 -14.02,34.45 -14.63,36.67 -3.56,12.94 -4.61,4.92 -3.85,21.94 1.94,43.61 1.49,13.85 9.64,27.22l25.42 0.35c15.74,-30.21 3.53,-8.48 6.8,-36.62 6.71,-57.85 -0.12,-25.4 21.59,-41.83z"/>
     <path class="fil73" d="M4925.52 7550.2l-0.73 1.12 -13.49 38.99c25.7,9.27 59.44,12.76 89.49,-0.04 36.34,-15.49 9.35,-3.52 25.9,-16.85l-10.61 -12.28c-1.03,-1.02 -6.31,-5.92 -8.53,-7.66l-17.8 -4.17c-22.94,-7.76 -30.44,-4.15 -64.23,0.89z"/>
     <path class="fil74" d="M4296.13 6464.3l18.06 -14.07c1.65,-41.4 23.74,-66.26 37.56,-105.72 -4.77,-16.81 16.17,-14.14 -17.29,-12.87l-30.4 12.57c-14.7,27.25 -15.59,15.35 -14.53,52 0.52,18.21 4.54,49.1 6.6,68.09z"/>
     <path class="fil75" d="M4242.35 6137.69c-54.17,0.23 -76.86,38.72 -72.11,-1.38 0.1,1.45 5.42,31.39 6.3,34.6l66.03 0.47c9.37,27.26 5.82,-0.09 4.4,40.66 19.51,8.02 13.36,10.88 17.56,-10.21l4.22 -14.17 -18.82 -23.96c6.08,-0.05 29.34,0.86 34.4,2.59 31.77,10.9 -3.95,-9.55 20.77,13.28l47.31 -14.17c3.6,-6.22 8.35,22.78 3.51,-11.93 -2.66,-19.03 -0.39,-4.79 -4.54,-7.26 -0.25,-0.23 -0.03,-23.71 -25.04,-1.77 -16.26,14.26 24.78,4.08 -15.71,11.59 -31.66,5.86 -57.99,-2.65 -91.52,-0.49 33.04,-0.72 14.67,3.73 23.24,-17.85z"/>
     <path class="fil76" d="M4990.68 6287.82c-3.39,15.12 4.36,15.9 -11.21,8.98l0.45 33.83 81.89 2.98c9.84,-21.89 -8.33,-24.75 10.35,-18.91 -8.69,-16.48 -17.87,-25.74 2.8,-34.21l7.36 -26.98 -13.09 -0.84 -5.58 15.92c-11.56,-3.78 -4.96,11.02 -17.89,-10.33l-9.19 0.55c1.67,3.88 7.82,22.51 9.95,30.29l-55.84 -1.28z"/>
     <path class="fil73" d="M4365.05 7551.96l1.47 39.66 124.7 3.06c-11.76,-35.94 -80.12,-48.49 -107.49,-48.36l-4.12 0 -14.56 5.64z"/>
     <polygon class="fil48" points="4976.13,6733.47 5124.68,6731.48 5115.33,6701.12 4980.42,6701.2 "/>
     <path class="fil74" d="M4248.3 6451.53c9.39,-7.34 12.44,-6.14 18.05,-16.22 0.99,-65.1 11.19,-38.92 -12.44,-94.2l-20.47 -5.86c-39.26,-0.05 -17.48,1.91 -24.78,12.1l39.64 104.18z"/>
     <path class="fil77" d="M5652.53 6023.99c11.38,21.77 6.16,22.64 6.99,52.96l0.23 59.94c-38.55,-15.99 -20.96,-17.81 -50.8,-40.41 -0.41,25.57 9.46,29.48 25.44,45.92 14.24,10.34 3.01,4.84 12.43,16.35 19.23,23.49 -0.62,11.69 33.08,25.86l-7.45 -126.67c-2.02,-17.9 2.14,-29.2 1.87,-33.53 -1.69,-27.93 5.6,-9.43 -9.54,-26.63 -18.52,9.93 -16.11,-18.47 -12.25,26.21z"/>
     <path class="fil66" d="M4593.33 6365.59l52.37 20.65 105.96 -32.01c-6.45,-3.87 -0.15,-3.03 -19.11,-7.98 -30.71,-8.01 -73.55,-9.51 -106.89,1.1l-27.75 14.11c-0.77,-1.57 -3.09,2.71 -4.58,4.13z"/>
     <path class="fil14" d="M4196.64 5920.75c33.45,11.1 106.04,39.93 72.75,-50.77l-43.88 -2.57c-17.7,17.79 -19.71,33.17 -28.87,53.34z"/>
     <path class="fil46" d="M5142.17 6255.62l-4.65 12.86c16.35,7.2 3.87,0.16 13.21,9.55l-2.27 36.64 29.73 -0.74 31.65 -4.52 5.77 32.98 13.14 0 -3.61 -30.32 36.18 -0.22c-27.74,-4.91 -15.12,1.92 -30.64,-15.44l2.26 -10.7 -34.47 2.68 -9.66 -15.37 -14.12 -18.62 -27.9 -5 -4.62 6.22z"/>
     <path class="fil17" d="M5587.71 6148.7l-46.39 2.39 -11.95 23.42 27.29 1.88 48.82 -6.05 20.1 35.32c7.55,-23.99 -14.81,-12.68 25.45,-9.25 0.36,0.03 2,0.51 2.34,0.51 1.17,-0.02 16.21,-5.42 26.53,-12.31 -33.7,-14.17 -13.85,-2.37 -33.08,-25.86 -9.42,-11.51 1.81,-6.01 -12.43,-16.35 -14.7,8.08 30.02,7.95 -20.41,7.4 -1.15,-1.03 -2.75,-3.05 -3.14,-3.44l-23.13 2.34z"/>
     <path class="fil78" d="M4197.54 6719.57l-1.88 -0.31c2.56,1.18 14.38,7.57 16.63,8.27l15.63 4.7c24.55,4.59 20.81,-4.36 52.54,5.62l87.29 6.18 1.6 -25.82 -167.17 -10.33 -4.64 11.69z"/>
     <path class="fil79" d="M4985.76 7537.89l3.99 11.42 17.8 4.17 48.15 -5.46 -3.67 -50.76 -43.43 4.85c-1.34,-3.02 -4.78,-2.58 -8.21,-4.52l9.3 -39.13c-24.02,22.05 -24.53,40.69 -23.93,79.43z"/>
     <path class="fil80" d="M5058.8 6484.74c2.03,48.35 -2.15,103.1 13.32,126.31 23.31,-10.03 13.42,4.87 20.88,-19.36l-0.21 -105.05 -33.99 -1.9z"/>
     <path class="fil80" d="M4288.84 6510.83c10.1,-15.08 14.99,-10.1 33.3,-42.9l-7.95 -17.7 -18.06 14.07c-7.49,-3.01 -11.66,0.46 -19.15,-7.76l-5.24 10.72 -23.52 -3.78c-6.57,25.62 0.84,15.12 -18.18,-11.09 -11.77,-16.23 -9.8,-17.06 -22.13,-34.31 5.1,29.04 12.89,38.91 26.88,63.78 12.49,22.21 -2.2,11.24 17.21,21.37 18.24,9.53 15.56,5.83 36.84,7.6z"/>
     <path class="fil81" d="M5140.48 6552.73l-3.78 -51.17 -31.85 -2.31 0.56 92.27c3.58,19.96 4.14,12.17 9.01,20.14l16.97 -1.68c14.54,-21.35 8.47,-21.57 9.09,-57.25z"/>
     <polygon class="fil40" points="5233.9,6613.58 5266.43,6616.65 5263.61,6502.85 5232.28,6501.86 "/>
     <path class="fil8" d="M5587.71 6148.7l23.13 -2.34c0.39,0.39 1.99,2.41 3.14,3.44 50.43,0.55 5.71,0.68 20.41,-7.4 -15.98,-16.44 -25.85,-20.35 -25.44,-45.92 29.84,22.6 12.25,24.42 50.8,40.41l-0.23 -59.94c-8.14,6.6 -11.41,11.06 -12.32,8.89 -0.92,-2.21 -5.6,1.75 -7.82,3.57 -1.25,-2.31 -3.17,-5.63 -3.79,-6.89l-31.09 0.79c-20.28,7.13 -10.57,0.59 -13.42,-0.03l-3.37 65.42z"/>
     <path class="fil82" d="M4305.33 7020.04l-8.69 58.68 107.92 -2.49 -9.9 -31.51 -37.72 0.37 -48.8 -5.98c-0.1,-23.18 -0.65,-58.61 2.66,-85.78l-5.47 66.71z"/>
     <path class="fil35" d="M4314.19 6450.23l7.95 17.7c2.74,-4.79 10.8,-23.67 11.13,-24.11 19.61,-26.02 -6.34,-5.49 21.84,-15.7l9.04 -35.18c1.31,-1.71 3.8,-6.2 4.31,-4.83 5.47,14.83 6.54,-7.98 7.36,-9.8 8.12,-18.01 6,1.43 3.43,-22.86l-27.5 -10.94c-13.82,39.46 -35.91,64.32 -37.56,105.72z"/>
     <polygon class="fil48" points="4944.78,6700.55 4823.43,6703.14 4812.56,6730 4945.26,6729.16 "/>
     <path class="fil31" d="M4253.91 6341.11c23.63,55.28 13.43,29.1 12.44,94.2l5.39 31.95 5.24 -10.72c7.49,8.22 11.66,4.75 19.15,7.76 -2.06,-18.99 -6.08,-49.88 -6.6,-68.09 -1.06,-36.65 -0.17,-24.75 14.53,-52 -8.96,-6.89 -6.94,10.47 -11.58,-8 -0.88,-3.49 -5.51,-2.1 -7.76,-3.92 -22.71,5.38 -12.64,0.74 -30.81,8.82z"/>
     <path class="fil83" d="M4662.24 6596.11c0.68,-1.53 9.94,8.59 8.24,-22.14 -2.87,-51.89 -1.81,-16.62 -13.23,-33.43 -29.43,3.12 -42.45,-4.04 -41.53,34.66 0.72,29.86 -4.22,18.05 16.13,27.07 30.09,13.35 28.98,-5.54 30.39,-6.16z"/>
     <path class="fil66" d="M4305.1 6179.57l-3.53 8.91c16.88,6.67 24.47,-17.96 11.27,19.16 26.29,17.14 39.55,11.25 63.8,7.94 6.8,-34.97 6.35,-11.55 3.6,-41.91l-27.83 -8.27 -47.31 14.17z"/>
     <path class="fil84" d="M3988.35 7554.15l-48.64 0.93 -6.79 14.44c1.84,4.38 24.1,94.81 52.22,37.42 6.14,-12.53 3.21,-38.33 3.21,-52.79z"/>
     <path class="fil66" d="M4185.47 6220.06l61.5 -8.02c1.42,-40.75 4.97,-13.4 -4.4,-40.66l-66.03 -0.47 -3.44 3.35 12.37 45.8z"/>
     <path class="fil85" d="M5814 7275.92l-15.14 3.72 -81.3 -1.67 -14.93 2.73c28.08,19.21 21.35,29.89 63.81,31.05 54.84,1.51 25.8,-9.18 66.02,-29.53l-18.46 -6.3z"/>
     <path class="fil84" d="M4559.18 7026.96c14.69,11.63 -1.04,1.14 25.26,10.48 24.21,-19.86 28.91,-31.11 67.29,-40.71l0 -9.24 -12.27 -3.73c41.01,-3.93 25.05,17.31 22.6,-24.47 -13.32,8.31 -15.11,5.73 -31.08,13.66l-26.62 14.38c-33.62,15.65 -26.37,10.44 -45.18,39.63z"/>
     <path class="fil86" d="M5228.75 6342.39l-13.14 0 -1.74 5.16 -13.72 -4.76c-6.51,25.45 13.97,7.36 -11.22,18.8l-40.64 -32.72 -17.09 -3.5c41.6,78.3 170.69,50.35 171.04,-16.02 -1.88,1.67 -4.25,3.92 -5.47,5.19 -1.14,1.21 -3.7,3.58 -5.05,5.03 -1.61,1.72 -6.59,8.14 -8.33,9.95 -9.04,9.49 -23.72,24.42 -41.98,23.74 -21.66,-0.8 -8.24,11.83 -12.66,-10.87z"/>
     <path class="fil87" d="M5342.75 7048.53l20.32 39.64c46.27,-34.6 -21.87,-0.29 11.22,-4.32 1.99,-0.24 23.03,12.22 40.58,-26.89 -13.97,-9.06 17.87,-19.84 -17.17,-5.94 -5.29,2.1 -8.2,10.04 -9.31,12.35 11.36,-32.58 1.07,2.38 9.84,-36.72l-52.72 4.74 13.16 33.26c1.83,-37.31 6.03,0.79 -15.92,-16.12z"/>
     <path class="fil88" d="M4209.6 7274.38c-38.91,13.28 -66.8,7.97 -106.89,7.99l-12.07 -0.35 33.4 12.06 -16.55 23.4 17.36 5.43c12.89,-23.72 42.58,-14.35 69.49,-8.82 -12.77,-16.47 11.96,-11.61 -13.06,-15.95 37.34,-7.27 16.07,0.46 40.62,-17.61 23.05,-16.97 23.04,-5.75 11.4,-15.9l-23.7 9.75z"/>
     <path class="fil88" d="M5190.16 7313.15l74.8 -2.91c13.42,-23.9 -0.7,3.01 12.62,-14.86 12.28,-16.46 14.43,-4.95 3.16,-18.3 -41.73,9.31 -65.36,6.73 -105.35,-2.49l10.38 16.46c3.53,8.19 3.23,1.97 4.39,22.1z"/>
     <path class="fil33" d="M5141.87 6217.17l4.92 32.23 27.9 5c-8.01,-72.39 -4.47,-13.84 15.1,-70.52l-2.81 -27.29 -11.67 0.97 -6.84 7.52c13.47,13.2 30.41,-5.2 -1.92,8.67 -23.19,35.82 -36.15,2.03 -24.68,43.42z"/>
     <path class="fil81" d="M5186.77 6549l-0.69 62.95 41.91 -2.46 -2.88 -71.07c-12.05,-0.15 -12.65,-1.59 -25.08,1.18 -40.26,9 10.6,-18.97 -13.26,9.4z"/>
     <path class="fil89" d="M4759.18 7265.91l-8.84 8.48c-66.49,17.07 -74.16,12.96 -130.43,-8.75 13.88,25.48 11.06,24.53 37.39,33.19 68.4,3.47 101.81,10.58 127.15,-49.28 -12.9,6.83 -8.84,2.96 -25.27,16.36z"/>
     <path class="fil90" d="M4765.62 6555.93l11.96 41.65 1.96 15.09 36.88 -0.33c1.81,-44.01 -1.55,-36.55 -15.46,-73.27l-20.87 5.14 -14.47 11.72z"/>
     <path class="fil67" d="M4751.23 6498.2l41.42 13.68 5.56 -14.14c18.74,39.55 3.68,26.32 28.49,30.34l2.99 -12.93c-18.21,-22.65 -13.89,-9.83 -4.89,-41.55 -40.96,0.8 -30.87,1.1 -49.11,24.88l0.05 -26.93 -32.08 -5.63 7.57 32.28z"/>
     <path class="fil91" d="M4074.54 6266.49l49.86 8.05c2.42,-50.2 -6.86,-61.08 -53.16,-57.59l3.3 49.54z"/>
     <path class="fil85" d="M4322.47 6250.51c-0.84,29.54 1.54,15.29 -5.47,30.27l-83.04 -2.79c23.57,-26.47 2.94,-16.01 42.67,-23.83 14.61,-2.88 10.76,4 30.01,-4.36 -91.67,-21.03 -73.29,5.17 -81.14,11.3 12,30.07 7.69,34.15 50.65,34.96 7.01,0.13 27.18,-2.14 33.46,-5.18 23.4,-11.32 14.21,-7.55 23.38,-31.35l-10.52 -9.02z"/>
     <path class="fil92" d="M4978.19 6263.01c4.96,9.46 8.8,17.86 12.49,24.81l55.84 1.28c-2.13,-7.78 -8.28,-26.41 -9.95,-30.29l-25.72 2.62c-8.04,-15.44 -6.45,-21.12 -17.08,-37.85 -21.31,11.53 -20.65,-25.52 -15.58,39.43z"/>
     <path class="fil93" d="M5588.54 7559.54c-34.22,-0.48 -44.87,4.72 -67.8,-14.62 -38.26,6.77 -21.12,-9.97 -28.41,28.5 18.46,11.51 83.22,27.33 96.21,-13.88z"/>
     <path class="fil52" d="M4792.65 6511.88l-12.56 32.33 20.87 -5.14c13.91,36.72 17.27,29.26 15.46,73.27l29.28 -2.17c-9.02,-42.01 -20.31,-34.18 -19,-82.09 -24.81,-4.02 -9.75,9.21 -28.49,-30.34l-5.56 14.14z"/>
     <path class="fil66" d="M4191.14 6292.86c3.25,5.55 10.98,16.42 15.32,20.58 24.11,23.13 -2.72,8.07 26.98,15.3 1.24,-31.94 10.79,-14.68 -26.86,-47.55 -0.8,-0.69 -3.59,-1.29 -4.16,-3.62 -0.57,-2.35 -2.74,-2.48 -5.85,-4.16l11.99 -44.14 -30.71 -3.05c0.13,0.93 -0.59,22.35 0.66,29.68 2.08,12.11 3.68,12.71 4.92,16.39 15.57,46.62 -6.31,-26.35 7.71,20.57z"/>
     <path class="fil94" d="M4692.29 6567.7l-2.65 41.25 89.9 3.72 -1.96 -15.09 -64.87 -5.5 -6.04 -64.53c-2.92,4.35 -5.98,6.9 -10.21,17.73 -4.33,11.08 -2.38,10.67 -4.17,22.42z"/>
     <path class="fil60" d="M4474.07 7518.67c31.84,-4.52 18.88,-1.9 47.68,-11.35l-11.86 -62.81c-30.98,17.53 -31.71,17.26 -35.82,74.16z"/>
     <path class="fil71" d="M4058.61 6727.88l18.4 5.17 -1.46 13.38 31.37 -0.42 15.78 -16.67c6.79,-53.11 -2.17,-20.8 -9.51,-31.3l-39.68 4.02c-9.93,29.63 3.66,0.73 -14.9,25.82z"/>
     <path class="fil13" d="M4552.58 6611.89l7.02 32.65 46.01 3.32 -24.56 -70.66c-25.28,19.13 -16.38,16.8 -28.47,34.69z"/>
     <path class="fil95" d="M4997.23 6556.42l5.44 0.77 14.54 -13.69c1.08,-1.14 3.17,-3.46 4.62,-5.3l26.56 1.12c-5.79,-20.26 -9.2,-34.19 -15.75,-49.54l-42.94 12.36 29.66 8.18c-46.28,30.63 -19.93,-11.71 -22.13,46.1z"/>
     <path class="fil93" d="M4322.47 6250.51l-15.83 -0.71c-19.25,8.36 -15.4,1.48 -30.01,4.36 -39.73,7.82 -19.1,-2.64 -42.67,23.83l83.04 2.79c7.01,-14.98 4.63,-0.73 5.47,-30.27z"/>
     <path class="fil96" d="M5131.43 7318.69l58.73 -5.54c-1.16,-20.13 -0.86,-13.91 -4.39,-22.1l-10.38 -16.46 -34.98 -19.14c-14.22,29.12 7.25,23.81 11.82,30.11 7.71,10.62 -11.83,28.38 -13.32,25.99 -1.26,-2.05 -4.86,4.9 -7.48,7.14z"/>
     <path class="fil97" d="M5181.32 6553.63l-34.33 0.62c0.1,8.08 -0.48,29.89 0.73,37.21 3.1,18.72 3.4,10.84 9.07,20.02 38.88,-7.24 24.59,-3.88 24.53,-57.85z"/>
     <path class="fil59" d="M5048.39 6539.32l-26.56 -1.12c-3.12,17.22 -6.98,27.57 -3.67,45.34 7.09,38.09 -6.04,12.26 20.09,24.66 5.87,-9.59 3.61,17.93 8.44,-24.71 1.78,-15.64 0.09,-26.62 1.7,-44.17z"/>
     <path class="fil64" d="M4724.99 6599.72l42.33 0 -12.42 -35.94c-15.95,-33.32 -13.01,27.92 -13.02,-40.26 -18.59,15.58 -16.96,41.74 -16.89,76.2z"/>
     <path class="fil95" d="M5388.2 7548.06l4.07 3.91c28.49,2.47 49.19,10.47 59.08,-16.15 -13.35,-11.14 -28.35,-2.89 -49.03,2.06 -0.01,-2.82 0.72,-25.33 -1.09,-32.39 -6.23,-24.3 -4.38,-11.98 -14.31,-25.16l1.28 67.73z"/>
     <path class="fil97" d="M4449.53 7542.92l16.57 13.09 60.55 -2.06 -3.58 -19.35c-59.47,3.07 -49.53,3.52 -70.54,-35.06l-1.2 3.19 -1.8 40.19z"/>
     <path class="fil98" d="M3936.69 7522.58l3.02 32.5 48.64 -0.93 -1.56 -6.09 -1.49 -67.73c-20.4,14.06 -24.87,-26.94 -11.45,29.12 16.66,69.61 5.53,26.56 -2.39,41.51 -28.35,-5.22 -34.42,21.02 -22.99,-122.92l-11.98 34.17c-1.43,15.84 0.59,42.48 0.2,60.37z"/>
     <path class="fil97" d="M5131.2 6325.37l17.09 3.5 0.17 -14.2 2.27 -36.64c-9.34,-9.39 3.14,-2.35 -13.21,-9.55l-12.42 16.62c-9.61,-50.94 4.19,-3.76 -16,-26.16 6.26,34.94 1.86,41.47 22.1,66.43z"/>
     <path class="fil99" d="M4351.38 6146.21c4.15,2.47 1.88,-11.77 4.54,7.26 4.84,34.71 0.09,5.71 -3.51,11.93l27.83 8.27c2.75,30.36 3.2,6.94 -3.6,41.91 2.16,-1.8 5.47,-7.17 6.39,-5.5 8.41,15.08 8.47,-8.49 10.23,-11.19 0.48,-0.74 8.34,-19.88 9.13,-21.6l3.52 -20.34c-9.95,-8.26 -13.86,-8.9 -20.28,-19.8 -3,17.57 -3.25,13.43 -7.78,19.87 -10.1,-6.76 -17.81,-7.69 -26.47,-10.81z"/>
     <path class="fil100" d="M5251.39 6239.6c39.65,-4.36 0.03,4.32 21.49,-0.79 25.84,-6.16 7.11,1.23 22.35,-10.84 -6.27,-40.78 -3.27,-37.27 -40.32,-43.45 11.21,28.9 10.16,18.36 1.5,42.59 -0.44,1.24 -2.15,7.34 -2.5,6.07 -0.36,-1.33 -1.88,4.21 -2.52,6.42z"/>
     <path class="fil101" d="M5096.2 6615.94l97.96 1.35c15.27,2.14 6.15,2.39 21.2,-0.36 1.54,-0.28 5.28,-0.53 6.43,-3.22 1.2,-2.8 4.11,-2.84 6.2,-4.22l-41.91 2.46 0.69 -62.95 -5.45 4.63c0.06,53.97 14.35,50.61 -24.53,57.85 -5.67,-9.18 -5.97,-1.3 -9.07,-20.02 -1.21,-7.32 -0.63,-29.13 -0.73,-37.21l-6.51 -1.52c-0.62,35.68 5.45,35.9 -9.09,57.25l-16.97 1.68c-4.87,-7.97 -5.43,-0.18 -9.01,-20.14l-0.56 -92.27 1.09 0c-1.08,43.99 5.71,76.11 -9.74,116.69z"/>
     <path class="fil102" d="M5254.91 6184.52c37.05,6.18 34.05,2.67 40.32,43.45 2.82,17.84 9.07,26.56 10.45,36.59 2.82,20.46 -3.65,21.15 -3.44,44.79 0.64,-0.79 4.38,-0.07 9.5,-13.25 3.84,-9.89 5.14,-15.91 5.46,-26.74 0.7,-23.35 -5.08,-32.26 -13.67,-50.59 -10.62,-30.55 -23.27,-40.23 -56.33,-50.64l0.56 11.6 7.15 4.79z"/>
     <path class="fil103" d="M5189.79 6183.88c-19.57,56.68 -23.11,-1.87 -15.1,70.52l16.01 -17.33 -8.47 -25.6c12.56,-7.57 5.33,-1.29 16.72,-14.65 1.14,-1.34 3.05,-4.4 3.98,-5.57 0.96,-1.22 3.17,-2.62 3.85,-5.89 0.7,-3.35 2.48,-4.13 3.73,-6.18l23.2 2.55c28.07,2.08 -5.07,8.07 14.05,-2l-0.56 -11.6 -7.52 2.22 -34.03 -4.72 -15.86 18.25z"/>
     <path class="fil79" d="M4320.29 7539.23l6.23 16.14 38.53 -3.41 14.56 -5.64 1.79 -23.1c-43.81,6.42 -23.8,-1.58 -61.11,16.01z"/>
     <path class="fil104" d="M4170.24 6136.31c-4.75,40.1 17.94,1.61 72.11,1.38l-41.93 -23.71c-11.04,26.17 7.24,13.58 -25.39,28.25l11.84 -39.62 -6.96 3.02 -9.67 30.68z"/>
     <path class="fil52" d="M5078.85 6234.39c-5.96,-22.62 -11.66,-27.01 -20.78,-41.85 -43.87,-1.39 -10.68,-2.6 -25.71,9.29 10.81,26.6 13.51,34.13 46.49,32.56z"/>
     <polygon class="fil38" points="4765.62,6555.93 4780.09,6544.21 4792.65,6511.88 4751.23,6498.2 "/>
     <path class="fil97" d="M4848.74 7554.74c31.76,0.43 48.98,8.36 67.43,-14.09 -1.95,-1.13 -4.61,-2.69 -5.99,-3.09l-61.32 -5.43 -0.12 22.61z"/>
     <path class="fil105" d="M5109.1 6258.94c20.19,22.4 6.39,-24.78 16,26.16l12.42 -16.62 4.65 -12.86 -22.86 -36.82c-9.06,10.25 -5.44,5.43 -10.86,23.71 -3.94,13.27 -0.83,5.87 0.65,16.43z"/>
     <polygon class="fil106" points="5061.81,6333.61 4979.92,6330.63 4975.3,6343.67 5057.08,6347.01 "/>
     <path class="fil80" d="M5002.86 6608.95l1.35 -44.31c-37.53,3.4 -16.91,2.2 -27.48,9.72l-1.65 28.7 27.78 5.89z"/>
     <path class="fil51" d="M4925.52 7550.2c33.79,-5.04 41.29,-8.65 64.23,-0.89l-3.99 -11.42c-2.13,-1.13 -4.63,-3.03 -6.2,-3.72l-19.49 -7.62c-21.48,-4.63 -8.54,-0.77 -23.38,0.63l-11.17 23.02z"/>
     <polygon class="fil107" points="5177.08,6327.71 5200.15,6342.79 5213.87,6347.55 5215.61,6342.39 5209.84,6309.41 5178.19,6313.93 "/>
     <path class="fil68" d="M5200.15 6342.79l-23.07 -15.08 -28.79 1.16 40.64 32.72c25.19,-11.44 4.71,6.65 11.22,-18.8z"/>
     <path class="fil108" d="M5230.68 6296.41c15.52,17.36 2.9,10.53 30.64,15.44 6.9,-39.53 9.43,-30.53 -18.35,-50.71l9.33 25.35c-11.01,14.83 19.83,16.6 -21.62,9.92z"/>
     <path class="fil109" d="M5000.35 6614.68l2.51 -5.73 -27.78 -5.89 1.65 -28.7c10.57,-7.52 -10.05,-6.32 27.48,-9.72l-1.54 -7.45 -5.44 -0.77 -26.94 1.84 2.86 55.77 27.2 0.65z"/>
     <path class="fil38" d="M5078.85 6234.39c-32.98,1.57 -35.68,-5.96 -46.49,-32.56 15.03,-11.89 -18.16,-10.68 25.71,-9.29l-27.57 -6.83 -9.63 24.01c20.06,18.98 22.22,24.05 42.78,36.56l15.2 -11.89z"/>
     <path class="fil110" d="M4185.47 6220.06l-7.62 6.16 30.71 3.05c17.91,-1.66 15.77,1.79 29.37,-5.38 15.93,-8.4 5.91,1.67 9.04,-11.85l-61.5 8.02z"/>
     <path class="fil111" d="M4983.95 6213.84l37.91 4.8c-9.04,-39.97 14.61,-28.35 -23.41,-23.75l-14.5 18.95z"/>
     <path class="fil112" d="M4268.75 6187.66c7.69,-13.65 -13,-10.26 15.97,-10.66l16.85 11.48 3.53 -8.91c-24.72,-22.83 11,-2.38 -20.77,-13.28 -5.06,-1.73 -28.32,-2.64 -34.4,-2.59l18.82 23.96z"/>
     <path class="fil40" d="M5232.94 6285.71l-2.26 10.7c41.45,6.68 10.61,4.91 21.62,-9.92l-9.33 -25.35 -6.68 2.64 -18.36 7.22c31.33,-3.48 1.04,-3.24 15.01,14.71z"/>
     <path class="fil110" d="M4358.43 6228.76c32.76,-10.45 10.94,2.22 18.21,-13.18 -24.25,3.31 -37.51,9.2 -63.8,-7.94 8.43,31.71 -17.83,3.85 9.18,16.74 20.08,9.59 16.57,3.52 36.41,4.38z"/>
     <path class="fil113" d="M4973.31 6363.3c31.29,10.63 60.73,13.89 85.63,-3.91l-85.63 3.91z"/>
     <path class="fil114" d="M5174.69 6254.4l14.12 18.62c11.78,-18.17 -14.3,-12.23 11.29,-14.96 2.12,-2.6 6.54,-5.97 6.89,-7.33 2.6,-9.94 -16.19,-13.58 -16.29,-13.66l-16.01 17.33z"/>
     <path class="fil115" d="M5189.79 6183.88l15.86 -18.25 34.03 4.72c-17.55,-15.51 -24.34,-11.48 -52.7,-13.76l2.81 27.29z"/>
     <path class="fil99" d="M4185.47 6220.06l-12.37 -45.8 -12.78 -3.69c1.62,6.62 5.45,27.09 6.76,29.84 9.43,19.76 4.15,11.34 18.39,19.65z"/>
     <polygon class="fil40" points="5142.17,6255.62 5146.79,6249.4 5141.87,6217.17 5120.36,6217.38 5119.31,6218.8 "/>
     <path class="fil102" d="M5120.36 6217.38l21.51 -0.21c-11.47,-41.39 1.49,-7.6 24.68,-43.42 32.33,-13.87 15.39,4.53 1.92,-8.67 -24.5,26.01 -26.23,15.28 -48.11,52.3z"/>
     <path class="fil116" d="M5245.21 6599.85c13.74,-25.13 11.48,-55.86 3.73,-85.58l-3.73 85.58z"/>
     <path class="fil117" d="M4248.3 6451.53l-0.08 11.95 23.52 3.78 -5.39 -31.95c-5.61,10.08 -8.66,8.88 -18.05,16.22z"/>
     <polygon class="fil115" points="5148.46,6314.67 5148.29,6328.87 5177.08,6327.71 5178.19,6313.93 "/>
     <path class="fil118" d="M5801.27 6159.25c47.08,40.39 25.58,1.16 26.78,0.25 -8.99,-3.73 -16.55,-10.46 -26.78,-0.25z"/>
     <path class="fil119" d="M4327.32 6183.17c10.09,23.01 -4.78,14.15 22.29,16.68 -1.07,-14.97 3.57,-29.22 -22.29,-16.68z"/>
     <path class="fil119" d="M4205.11 6193.36c6.63,2.89 -8.67,20.73 24.46,0 -18.74,-32.05 -16.07,-4.29 -24.46,0z"/>
     <path class="fil120" d="M5664.78 6327.28c1.27,-1.64 3.89,-6.06 3.92,-4.82 0.02,1.15 2.51,-4.13 2.42,-5.15 -1.14,-14.42 -1.28,-9.15 -6.34,-18.11 -2.59,4.21 -25.57,3.4 0,28.08z"/>
     <path class="fil86" d="M4978.19 6263.01c-5.07,-64.95 -5.73,-27.9 15.58,-39.43l-6.56 -9.68 -20.94 22.15 11.92 26.96z"/>
     <path class="fil63" d="M5527.38 6171.87l-17.96 -20.97c-3.15,26.59 -29.48,18.59 17.96,20.97z"/>
     <path class="fil121" d="M5069.23 6252.67l-23.47 5.59c12.93,21.35 6.33,6.55 17.89,10.33l5.58 -15.92z"/>
     <path class="fil111" d="M4139.79 6466.31c-5.05,-23.34 4.14,-12.74 -15.39,-21.62l0.67 14.63 14.72 6.99z"/>
    </g>
   </g>
  </g>
  <path class="fil122" d="M4961.47 5631.42c724.78,0 1312.33,587.55 1312.33,1312.33 0,724.78 -587.55,1312.33 -1312.33,1312.33 -724.78,0 -1312.33,-587.55 -1312.33,-1312.33 0,-724.78 587.55,-1312.33 1312.33,-1312.33z"/>
 </g>
</svg>
