<svg xmlns="http://www.w3.org/2000/svg" xmlns:xlink="http://www.w3.org/1999/xlink" viewBox="0 0 626.39 417.59"><defs><style>.cls-1,.cls-16,.cls-22,.cls-6,.cls-7{fill:none;}.cls-2{clip-path:url(#clip-path);}.cls-3{fill:#ffe7de;}.cls-4{fill:#eddcd4;}.cls-11,.cls-12,.cls-15,.cls-19,.cls-20,.cls-21,.cls-22,.cls-4,.cls-5,.cls-6,.cls-7,.cls-8{stroke:#972c23;}.cls-12,.cls-14,.cls-16,.cls-17,.cls-19,.cls-20,.cls-22,.cls-4{stroke-miterlimit:10;}.cls-5,.cls-8,.cls-9{fill:#dfb28a;}.cls-11,.cls-15,.cls-21,.cls-5,.cls-6,.cls-7,.cls-8,.cls-9{stroke-linejoin:round;}.cls-14,.cls-15,.cls-16,.cls-20,.cls-21,.cls-7,.cls-8{stroke-linecap:round;}.cls-17,.cls-9{stroke:#040404;}.cls-10,.cls-12,.cls-14,.cls-15{fill:#972c23;}.cls-11,.cls-19,.cls-20,.cls-21{fill:#fff;}.cls-13,.cls-17{fill:#040404;}.cls-14,.cls-16{stroke:#6c1c15;}.cls-18{fill:#6c1c15;}</style><clipPath id="clip-path" transform="translate(-44.26 -32.9)"><circle class="cls-1" cx="345.07" cy="244.99" r="209.63"/></clipPath></defs><g id="OBJECTS"><g class="cls-2"><rect class="cls-3" width="626.39" height="417.59"/><rect class="cls-4" x="237.15" y="65.16" width="189.33" height="115"/><rect class="cls-5" x="231.34" y="65.16" width="189.33" height="115"/><rect class="cls-4" x="321.12" y="69.24" width="98.3" height="172.63" transform="translate(481.56 -247.61) rotate(90)"/><path class="cls-5" d="M247.85,62.25h4.36a1.23,1.23,0,0,1,1.23,1.23v1.68a0,0,0,0,1,0,0h-6.82a0,0,0,0,1,0,0V63.48A1.23,1.23,0,0,1,247.85,62.25Z"/><path class="cls-5" d="M397.72,62.25h4.36a1.23,1.23,0,0,1,1.23,1.23v1.68a0,0,0,0,1,0,0h-6.82a0,0,0,0,1,0,0V63.48A1.23,1.23,0,0,1,397.72,62.25Z"/><path class="cls-6" d="M416.78,133.88" transform="translate(-44.26 -32.9)"/><polyline class="cls-6" points="251.98 155.48 251.98 158.9 398.44 158.9 398.44 155.48"/><line class="cls-5" x1="276.39" y1="155.48" x2="276.39" y2="158.9"/><line class="cls-5" x1="300.8" y1="155.48" x2="300.8" y2="158.9"/><line class="cls-5" x1="325.21" y1="155.48" x2="325.21" y2="158.9"/><line class="cls-5" x1="349.62" y1="155.48" x2="349.62" y2="158.9"/><line class="cls-5" x1="374.03" y1="155.48" x2="374.03" y2="158.9"/><line class="cls-7" x1="376.2" y1="101.95" x2="251.98" y2="151.81"/><polyline class="cls-7" points="370.47 99.63 376.42 101.85 374.21 107.8"/><line class="cls-6" x1="325.21" y1="122.66" x2="325.21" y2="157.51"/><line class="cls-7" x1="324.96" y1="132.71" x2="355.43" y2="132.71"/><rect class="cls-5" x="355.43" y="128.94" width="31.01" height="7.54"/><rect class="cls-5" x="255.01" y="85.58" width="29.02" height="5.21"/><line class="cls-8" x1="255.01" y1="96.35" x2="266.23" y2="96.35"/><line class="cls-8" x1="261.58" y1="100.84" x2="270.88" y2="100.84"/><line class="cls-8" x1="269.15" y1="96.35" x2="276.44" y2="96.35"/><line class="cls-8" x1="255.07" y1="100.84" x2="259.01" y2="100.84"/><line class="cls-8" x1="279.34" y1="96.35" x2="283.29" y2="96.35"/><path class="cls-5" d="M339.53,147.66l4.76-1.77a1.52,1.52,0,0,0,.51-.32l3.43-3.2a1.25,1.25,0,0,1,.19-.15A1.81,1.81,0,0,1,349,142c.35-.07,4,.07,8.9.38a40.84,40.84,0,0,1,.61,7.39,6.84,6.84,0,0,1-.64,3,5.26,5.26,0,0,1-2.91,2.43,9.18,9.18,0,0,1-6.41,0l-.64-.23-5.2,1.85Z" transform="translate(-44.26 -32.9)"/><path class="cls-5" d="M347.94,155a2.31,2.31,0,0,1,1.45-3.11s-2.26-1.78-.27-3.12" transform="translate(-44.26 -32.9)"/><path class="cls-8" d="M357.14,151.15s-2.38,2-7.75.69" transform="translate(-44.26 -32.9)"/><path class="cls-8" d="M356.18,148.09a10.49,10.49,0,0,1-6.68.46" transform="translate(-44.26 -32.9)"/><line class="cls-9" x1="303.74" y1="124.3" x2="311.31" y2="77.55"/><path class="cls-8" d="M349.17,143.1s6.9.47,6.45,2.13-4.8,1.83-4.8,1.83-.17,1.78-3.85,2.16" transform="translate(-44.26 -32.9)"/><path class="cls-10" d="M286.65,146.27q3.78,3.43,7.67,6.88,8.49,7.54,16.9,14.66l27.85-22q4.55,5.26,9.11,10.52a167,167,0,0,1-24.42,24c-10.69,8.52-14.47,9.32-17.33,9.35,0,0-4.63.06-22.54-10.19Z" transform="translate(-44.26 -32.9)"/><path class="cls-11" d="M260.53,142.59q3.9,46.38,7.81,92.76l15.92.13-10.11-92.92c-2.09-.2-4-.24-5.79-.28A53,53,0,0,0,260.53,142.59Z" transform="translate(-44.26 -32.9)"/><path class="cls-12" d="M234.08,235.06l34.26.29q-3.91-46.38-7.81-92.76a26.63,26.63,0,0,0-5.88,1.23l-.16.06a25.56,25.56,0,0,0-8.82,5c-.25.23-.49.47-.74.72-4.6,4.85-5.52,10.88-6,14.2C235.4,189.36,234.25,228.55,234.08,235.06Z" transform="translate(-44.26 -32.9)"/><path class="cls-12" d="M274.15,142.56q2.24,19.51,4,40.15,2.2,26.83,3.18,52c3.11.39,6.5.69,10.14.83,3.46.13,6.7.09,9.69,0q-.17-14.3-.83-29.41-.81-18-2.28-34.85a29.86,29.86,0,0,0-1.74-11.29c-.9-2.49-3.38-9.09-9.81-13.28a26.78,26.78,0,0,0-8.22-3.46A33.76,33.76,0,0,0,274.15,142.56Z" transform="translate(-44.26 -32.9)"/><path class="cls-8" d="M260.71,144.49l-2.16-23h13.22l2.16,23s-.36,3.8-5.05,4.25S260.71,144.49,260.71,144.49Z" transform="translate(-44.26 -32.9)"/><path class="cls-5" d="M278.57,141.23c-7.75,1.87-15.83-5.23-18-7.21a17.1,17.1,0,0,1-4.75-8.1,15,15,0,0,1,12.65-19.37,14.84,14.84,0,0,1,9,1.86c5.78,3.42,7,10,7.5,12.55.27,1.42,2.69,15.37-4.13,19.39A7.75,7.75,0,0,1,278.57,141.23Z" transform="translate(-44.26 -32.9)"/><path class="cls-13" d="M250.5,121.11c.68,4.27,3.24,11.47,7.45,11.78.37,0,2,.51,2-.42.33-8.62.74-11.24,1.14-11.25s1.13,3.52,1.74,3.47.76-3.14.83-7.07a3.73,3.73,0,0,0,2-1,4,4,0,0,0,1.12-3.05c7.12-2.07,11.31-1.14,13.88.22,1,.54,2.14,1.34,3.05.89,2-1,2.13-7.59-.75-8.85-1.38-.61-3,.2-3.7.59a14.3,14.3,0,0,0-6.49-3.87c-7.73-2.06-17.2,3-17.38,7.24a2.9,2.9,0,0,0,.1.89,9.68,9.68,0,0,0-4.83,5.19A9.84,9.84,0,0,0,250.5,121.11Z" transform="translate(-44.26 -32.9)"/><path class="cls-13" d="M281.8,125.1c.09,1.05-.05,1.91-.31,1.93s-.54-.8-.63-1.85.05-1.9.31-1.93S281.71,124.06,281.8,125.1Z" transform="translate(-44.26 -32.9)"/><path class="cls-13" d="M273.07,125.85c.09,1-.08,1.91-.37,1.93s-.61-.8-.7-1.84.08-1.91.37-1.94S273,124.8,273.07,125.85Z" transform="translate(-44.26 -32.9)"/><polyline class="cls-8" points="234.47 90.36 235.65 96.75 233.23 96.95"/><path class="cls-8" d="M275.82,134.34s-2.63,1.09-4.12-1.15" transform="translate(-44.26 -32.9)"/><path class="cls-8" d="M261.09,129.85c-.86.07-1.73-1.89-1.94-4.37s.31-4.57,1.17-4.64,1.74,1.88,1.95,4.37a13.77,13.77,0,0,1,0,1.42" transform="translate(-44.26 -32.9)"/><path class="cls-14" d="M260.26,139.66,251.69,146l3.47,7.34-4.76,5,13.06,24.42" transform="translate(-44.26 -32.9)"/><path class="cls-14" d="M273.72,142.23l10.67,8.3L281.3,156l6.35,4.42-8.94,21.19" transform="translate(-44.26 -32.9)"/><path class="cls-15" d="M245.67,148.87a159.16,159.16,0,0,0-15.29,19.4c-9.48,14.15-10.8,22.64-12.37,31.42-1.17,6.53,5.25,12.37,13.61,12.37h18.67Z" transform="translate(-44.26 -32.9)"/><path class="cls-16" d="M243.13,205.25l-2.19-12.47a4.51,4.51,0,0,0-5.18-3.67l-10.68,1.79" transform="translate(-44.26 -32.9)"/><polygon class="cls-4" points="236.07 175.71 204.76 175.71 195.9 133.22 227.21 133.22 236.07 175.71"/><polygon class="cls-5" points="196.22 159.71 199.01 153.19 209.19 151.49 210.07 153.5 202.73 156.19 202.68 157.44 213.38 158.93 213.38 162.86 211.57 162.86 211.83 166.28 209.14 167.1 209.14 169.74 198.08 169.74 196.22 159.71"/><path class="cls-8" d="M256.05,195.76c-1.49,0-3.05-.11-4.66-.22-1.39-.1-2.73-.23-4-.38" transform="translate(-44.26 -32.9)"/><path class="cls-8" d="M253.53,200a31.58,31.58,0,0,1-4,0,34.1,34.1,0,0,1-3.6-.44" transform="translate(-44.26 -32.9)"/><path class="cls-13" d="M295.44,358.73V368l16.67,4.89a2,2,0,0,1,1.44,1.93h0a2,2,0,0,1-2,2l-33.2.21,1.47-18.94Z" transform="translate(-44.26 -32.9)"/><path class="cls-13" d="M255.56,359.89v8.69l15.6,4.58a1.9,1.9,0,0,1,1.35,1.81h0a1.88,1.88,0,0,1-1.87,1.89l-31.09.2q.69-8.87,1.37-17.73Z" transform="translate(-44.26 -32.9)"/><path class="cls-17" d="M236.34,362.85l2.55-127.75,35.26,0v0l25.57,0-2,127.8H276.78l-8.23-85.4-11.29,85.4Z" transform="translate(-44.26 -32.9)"/><line class="cls-14" x1="254.97" y1="154.46" x2="253.79" y2="138.95"/><rect class="cls-4" x="450.98" y="271.57" width="53.43" height="6.17"/><rect class="cls-4" x="450.98" y="277.74" width="53.43" height="70.85"/><rect class="cls-4" x="450.98" y="341.64" width="53.43" height="6.95"/><rect class="cls-4" x="492.38" y="339.63" width="14.29" height="4.02"/><rect class="cls-5" x="486.28" y="339.63" width="9.97" height="4.02"/><rect class="cls-17" x="466.24" y="271.57" width="11.46" height="77.02"/><rect class="cls-4" x="108.78" y="212.07" width="371.52" height="10.97"/><rect class="cls-5" x="108.78" y="212.07" width="167.9" height="10.97"/><rect class="cls-5" x="316.36" y="223.04" width="11.46" height="125.54"/><polygon class="cls-10" points="327.82 223.04 327.82 227.26 316.36 232.56 316.36 223.04 327.82 223.04"/><rect class="cls-5" x="113.93" y="223.04" width="11.46" height="125.54"/><polygon class="cls-17" points="125.39 223.04 125.39 227.26 113.93 232.56 113.93 223.04 125.39 223.04"/><rect class="cls-5" x="258.74" y="223.04" width="11.46" height="125.54"/><polygon class="cls-17" points="270.2 223.04 270.2 227.26 258.74 232.56 258.74 223.04 270.2 223.04"/><rect class="cls-5" x="461.17" y="223.04" width="11.46" height="125.54"/><polygon class="cls-17" points="472.63 223.04 472.63 227.26 461.17 232.56 461.17 223.04 472.63 223.04"/><polygon class="cls-4" points="378.04 212.07 419.5 212.07 412.95 185.31 371.48 185.31 378.04 212.07"/><polygon class="cls-5" points="412.19 208.91 407.19 188.48 375.52 188.48 380.52 208.91 412.19 208.91"/><path class="cls-4" d="M459,231.59a1.2,1.2,0,0,1-1.2,1.54,2,2,0,0,1-1.87-1.54,1.2,1.2,0,0,1,1.2-1.54A2,2,0,0,1,459,231.59Z" transform="translate(-44.26 -32.9)"/><path class="cls-8" d="M456.84,196.41l1.12,8.07a6.09,6.09,0,0,0,1.82,3.59c3.17,3,7.37,4.24,11.06,3.16l.09,0a6.11,6.11,0,0,0,3.63-8.45l-4-8.59" transform="translate(-44.26 -32.9)"/><path class="cls-5" d="M472.89,182.81a17.63,17.63,0,0,1-4.14,8.66c-4.25,7.24-11.86,10.72-17.63,8.88-4.7-1.5-6.89-6.15-7.83-10.78l-2.1-.93,1.49-5.59c0-1.06.06-2,.13-2.75.28-2.67,1-9.42,6.54-13.41a15,15,0,0,1,9-2.66,16,16,0,0,1,11.47,5.67C474.13,175.25,473.11,181.48,472.89,182.81Z" transform="translate(-44.26 -32.9)"/><path class="cls-10" d="M444.62,183.25c0,1.07-.17,1.94-.37,1.94s-.37-.87-.37-1.94.16-1.93.37-1.93S444.62,182.18,444.62,183.25Z" transform="translate(-44.26 -32.9)"/><path class="cls-8" d="M451.85,190.3c.88,0,1.59-2.07,1.59-4.62s-.71-4.61-1.59-4.61-1.6,2.06-1.6,4.61a13.58,13.58,0,0,0,.08,1.47" transform="translate(-44.26 -32.9)"/><path class="cls-13" d="M462.8,362.48v8.14l-14.61,4.29a1.77,1.77,0,0,0-1.27,1.69h0a1.77,1.77,0,0,0,1.75,1.77l29.11.19q-.64-8.31-1.28-16.61Z" transform="translate(-44.26 -32.9)"/><polygon class="cls-10" points="404.64 234.81 417.14 329.58 434.11 329.58 434.11 236.41 404.64 234.81"/><polygon class="cls-18" points="409.26 269.8 410.69 280.67 434.11 269.8 434.11 260.88 409.26 260.88 409.26 269.8"/><path class="cls-13" d="M434.23,362.48v8.14l-14.61,4.29a1.77,1.77,0,0,0-1.27,1.69h0a1.78,1.78,0,0,0,1.76,1.77l29.11.19L447.93,362Z" transform="translate(-44.26 -32.9)"/><polygon class="cls-10" points="376.08 234.81 388.58 329.58 405.55 329.58 405.55 236.41 376.08 234.81"/><path class="cls-18" d="M449.81,276.86l-24.07.32,24.07,34.64Z" transform="translate(-44.26 -32.9)"/><path class="cls-10" d="M420.34,267.71a9.17,9.17,0,0,0,9.17,9.17h60.81a9.36,9.36,0,0,0,9.27-10.67c-.27-1.92-1.32-8.33-1.59-10.25l-68.84,2.59a9.17,9.17,0,0,0-8.82,9.16Z" transform="translate(-44.26 -32.9)"/><path class="cls-19" d="M475.38,199.29l-1.63-2.74a1.92,1.92,0,0,0-1.13-.9,26.07,26.07,0,0,0-7.64-.87,26.43,26.43,0,0,0-8.81,1.89,2.05,2.05,0,0,0-1.1,1.14l-1,2.49a63,63,0,0,1,21.34-1Z" transform="translate(-44.26 -32.9)"/><path class="cls-19" d="M510.24,244.74H500.07a129.08,129.08,0,0,1-.94,20h-51.8a4.13,4.13,0,0,1-1.36-1.87,4.66,4.66,0,0,1,.74-4.06L442.81,245H411c-2.23-9,24.16-33.59,24.16-33.59,2.59-2.39,15.53-13.94,34.34-12.82l1.3.1A39,39,0,0,1,498,213.78C505.18,223.11,515.33,238.35,510.24,244.74Z" transform="translate(-44.26 -32.9)"/><path class="cls-20" d="M442.81,245q-2.69-9.06-5.36-18.11" transform="translate(-44.26 -32.9)"/><line class="cls-21" x1="396.88" y1="206.44" x2="391.4" y2="201.19"/><path class="cls-13" d="M480.39,185.86c1.06,2-4.06,8.33-10.79,10a15.05,15.05,0,0,1-8.54-.4c-6.64-2.34-9.1-8.65-9.47-9.64a7.08,7.08,0,0,1-.92.86,2.58,2.58,0,0,1-1.47.47c-.93-.14-1.46-1.73-1.78-3.08a25.54,25.54,0,0,1-.52-8.48c-2.11,2.71-3.23,3.21-3.88,3-1.76-.65-2.06-7.64,1.52-11.92a10.18,10.18,0,0,1,2.58-2.21q-3.5-1.38-3.42-2.53.1-1.74,8.18-3c-1.19-1.26-1.31-1.95-1.14-2.36.95-2.22,12.92-.56,22.13,5.51,2.87,1.89,4.79,3.2,6.15,5.76,3.82,7.17-1.29,15.94-2.06,17.21C479.36,184.87,480.13,185.37,480.39,185.86Z" transform="translate(-44.26 -32.9)"/><path class="cls-5" d="M440.45,302.69h58a4.43,4.43,0,0,0,4.43-4.43h0a4.43,4.43,0,0,0-4.43-4.44h-58a4.44,4.44,0,0,0-4.44,4.44h0A4.43,4.43,0,0,0,440.45,302.69Z" transform="translate(-44.26 -32.9)"/><rect class="cls-4" x="461.22" y="217.19" width="53.65" height="53.65" rx="10.68" transform="translate(931.84 455.14) rotate(180)"/><path class="cls-4" d="M433.32,293.82H506.4a8.5,8.5,0,0,0,8.47-8.48h0a8.5,8.5,0,0,0-8.47-8.48H433.32a8.5,8.5,0,0,0-8.48,8.48h0A8.5,8.5,0,0,0,433.32,293.82Z" transform="translate(-44.26 -32.9)"/><path class="cls-5" d="M468,302.69h20.11a11.59,11.59,0,0,0,11.58-11.58V251.8a4.46,4.46,0,0,0-8.92,0v39.31a2.67,2.67,0,0,1-2.66,2.66H468a4.46,4.46,0,1,0,0,8.92Z" transform="translate(-44.26 -32.9)"/><rect class="cls-5" x="486.57" y="242.42" width="17.35" height="17.35" rx="3.41" transform="translate(946.23 469.3) rotate(180)"/><line class="cls-21" x1="446.67" y1="211.91" x2="446.67" y2="224.48"/><path class="cls-4" d="M496.59,378.87l-21.87-9.21V306.31l-9.82,4.55V369.7l-21.78,9.17a1.36,1.36,0,0,0,.53,2.61h52.42A1.36,1.36,0,0,0,496.59,378.87Z" transform="translate(-44.26 -32.9)"/><polygon class="cls-4" points="430.46 269.8 430.46 273.42 420.63 277.96 420.63 269.8 430.46 269.8"/><polygon class="cls-17" points="430.46 269.8 430.46 273.42 420.63 277.96 420.63 269.8 430.46 269.8"/><polygon class="cls-4" points="253.81 209.78 203.5 209.78 212.13 174.53 262.44 174.53 253.81 209.78"/><polygon class="cls-5" points="208.82 205.61 215.41 178.7 257.12 178.7 250.53 205.61 208.82 205.61"/><rect class="cls-5" x="177.94" y="209.78" width="75.86" height="2.29"/><rect class="cls-4" x="223.89" y="209.78" width="29.92" height="2.29"/><rect class="cls-5" x="248.83" y="193.84" width="14.74" height="18.24"/><path class="cls-22" d="M293.09,229.37c1.84,0,1.84,2,3.68,2s1.85-2,3.69-2,1.84,2,3.68,2,1.85-2,3.69-2" transform="translate(-44.26 -32.9)"/><path class="cls-22" d="M293.09,233.15c1.84,0,1.84,2,3.68,2s1.85-2,3.69-2,1.84,2,3.68,2,1.85-2,3.69-2" transform="translate(-44.26 -32.9)"/><path class="cls-22" d="M293.09,236.93c1.84,0,1.84,2,3.68,2s1.85-2,3.69-2,1.84,2,3.68,2,1.85-2,3.69-2" transform="translate(-44.26 -32.9)"/><path class="cls-22" d="M293.09,240.71c1.84,0,1.84,2,3.68,2s1.85-2,3.69-2,1.84,2,3.68,2,1.85-2,3.69-2" transform="translate(-44.26 -32.9)"/><path class="cls-5" d="M234.64,186.12l-1.62.79c-.6,5.39-2.65,11.63-8.25,13.42-5.77,1.85-13.37-1.63-17.63-8.88A17.52,17.52,0,0,1,203,182.8a16.21,16.21,0,0,1,3.07-12.92,16,16,0,0,1,11.47-5.67,15,15,0,0,1,9,2.68c5.58,4,6.27,10.72,6.54,13.4Z" transform="translate(-44.26 -32.9)"/><path class="cls-13" d="M232,180.33c0,1.07-.16,1.93-.37,1.93s-.37-.86-.37-1.93.17-1.94.37-1.94S232,179.26,232,180.33Z" transform="translate(-44.26 -32.9)"/><path class="cls-5" d="M205,211.19c-2.62-1.55-4-4.91-3.63-8.46.82-1.81,1.75-3.72,2.84-5.71a78.44,78.44,0,0,1,4.5-7.25,6.79,6.79,0,0,1,5.42-1.18,6.9,6.9,0,0,1,4.43,3.55,5.91,5.91,0,0,1,.62,3.67l-1.2,8.66a6.59,6.59,0,0,1-1.82,3.58C213.91,210.78,208.89,213.51,205,211.19Z" transform="translate(-44.26 -32.9)"/><path class="cls-13" d="M198.3,180.48a23.42,23.42,0,0,0,2.63,9c-2.11,1.55-2.29,2.69-2.23,3.27.24,2.56,5.9,3.95,9.15,4.24,2.19.2,7.15.65,11.69-2.82a15.63,15.63,0,0,0,5.8-10.75c.14.17,1.51,1.71,2.39,1.33.43-.18.74-.81.74-2.27a87,87,0,0,0-.52-9,17.92,17.92,0,0,0,3.92-2.59,7.73,7.73,0,0,0,1.81-6.27c-.12-.63-.78-3.93-3.2-4.39-1.95-.37-3.59,1.37-3.76,1.56a21.76,21.76,0,0,0-8.87-2.18c-1.71,0-10.08-.25-15.58,6.15C197.56,171.28,198.11,178.08,198.3,180.48Z" transform="translate(-44.26 -32.9)"/><path class="cls-8" d="M225.08,187.94c-.88,0-1.59-2.07-1.59-4.62s.71-4.61,1.59-4.61,1.6,2.06,1.6,4.61a13.35,13.35,0,0,1-.08,1.45" transform="translate(-44.26 -32.9)"/><path class="cls-13" d="M214.32,362.47v8.79l15.79,4.64a1.92,1.92,0,0,1,1.37,1.83h0a1.91,1.91,0,0,1-1.9,1.91l-31.46.21,1.38-18Z" transform="translate(-44.26 -32.9)"/><polygon class="cls-10" points="182.73 234.8 170.23 329.57 153.26 329.57 153.26 236.39 182.73 234.8"/><polygon class="cls-18" points="153.26 267.54 153.26 283.26 177.93 271.14 179.28 260.92 153.26 267.54"/><path class="cls-13" d="M251.86,362.47v8.79l15.79,4.64a1.91,1.91,0,0,1,1.38,1.83h0a1.91,1.91,0,0,1-1.9,1.91l-31.47.21q.69-9,1.39-18Z" transform="translate(-44.26 -32.9)"/><path class="cls-10" d="M264.92,268.93a35.52,35.52,0,0,1-2.68,6.48,36.48,36.48,0,0,1-6.53,8.76l-70.43-7.31A9.36,9.36,0,0,1,176,266.2c.27-1.92,1.32-8.34,1.59-10.26l78.5,3.83a9.17,9.17,0,0,1,8.82,9.16Z" transform="translate(-44.26 -32.9)"/><path class="cls-10" d="M264.92,268.93q-6.14,46.77-12.29,93.54h-17V269.29Z" transform="translate(-44.26 -32.9)"/><path class="cls-18" d="M236,276.86l19.8-.13-20.1,39Z" transform="translate(-44.26 -32.9)"/><path class="cls-5" d="M273.94,234.44s0,.06,0,.16c.11,1.09.69,7.33-.51,7.17s-1.71-6.06-1.71-6.06l2.21-1.21" transform="translate(-44.26 -32.9)"/><path class="cls-5" d="M271,233.83l0,.16c.15,1.1,1,7.36-.44,7.18s-2.14-6.12-2.14-6.12l2.56-1.16" transform="translate(-44.26 -32.9)"/><path class="cls-5" d="M255.56,236.65a8.63,8.63,0,0,1,3.56-4.36,9.29,9.29,0,0,1,1.12-.53,17.63,17.63,0,0,1,6.89-1.43,12.51,12.51,0,0,1,9.54,4.24,3.31,3.31,0,0,1,.14.33,27.14,27.14,0,0,0,.63,3.5c.4,1.73.83,3.16.22,3.61a.65.65,0,0,1-.34.12c-1.28.14-2.77-3.5-3-4.1l-1.62-1a4.53,4.53,0,0,1-1.21,1.92,4.93,4.93,0,0,1-2.53,1.19c-2,.42-7.22.3-14-.52A9.12,9.12,0,0,1,255.56,236.65Z" transform="translate(-44.26 -32.9)"/><path class="cls-19" d="M252.2,245a43.39,43.39,0,0,0,10.67-1c3.34-.76,4.06-1.67,4.37-2.06,1.65-2,1.27-8.71-2.75-11.85-1.29-1-1.84-.78-5.16-2.06a46.24,46.24,0,0,1-7.32-3.58Q252.1,234.71,252.2,245Z" transform="translate(-44.26 -32.9)"/><path class="cls-11" d="M260.19,237.73a8.75,8.75,0,0,1-4.42,6.33c-5.54,2.91-13.58-2.29-18-5.16-1.32-.85-2.36-1.63-3.07-2.19q-2.37,10.81-4.72,21.64a5.83,5.83,0,0,1,1.41,6.7l-54.9-.35a130.15,130.15,0,0,1-.94-20H165.36a57.76,57.76,0,0,1,17.44-37.54c.5-.48.92-.88,1.22-1.15a45.18,45.18,0,0,1,22.12-7.48c18.81-1.12,31.75,10.42,34.33,12.82,5.26,6,9.12,10.34,11.12,12.58C258.15,231.33,260.67,234.07,260.19,237.73Z" transform="translate(-44.26 -32.9)"/><line class="cls-20" x1="190.41" y1="203.81" x2="194.63" y2="186.94"/><line class="cls-21" x1="191.56" y1="199.23" x2="196.61" y2="193.23"/><path class="cls-19" d="M199.69,199.3l1.62-2.64a1.94,1.94,0,0,1,1.14-.86,26.49,26.49,0,0,1,7.63-.84,26.91,26.91,0,0,1,8.82,1.82,2,2,0,0,1,1.09,1.09l1,2.4a65.77,65.77,0,0,0-21.33-1Z" transform="translate(-44.26 -32.9)"/><path class="cls-4" d="M234.82,378.87,213,369.66V306.31l-9.82,4.55V369.7l-21.78,9.17a1.36,1.36,0,0,0,.53,2.61H234.3A1.36,1.36,0,0,0,234.82,378.87Z" transform="translate(-44.26 -32.9)"/><polygon class="cls-4" points="168.69 269.8 168.69 273.42 158.87 277.96 158.87 269.8 168.69 269.8"/><polygon class="cls-17" points="168.69 269.8 168.69 273.42 158.87 277.96 158.87 269.8 168.69 269.8"/><path class="cls-5" d="M237.08,302.69h-58a4.43,4.43,0,0,1-4.44-4.43h0a4.44,4.44,0,0,1,4.44-4.44h58a4.43,4.43,0,0,1,4.43,4.44h0A4.43,4.43,0,0,1,237.08,302.69Z" transform="translate(-44.26 -32.9)"/><rect class="cls-4" x="118.39" y="184.29" width="53.65" height="53.65" rx="10.68"/><path class="cls-4" d="M244.21,293.82H171.13a8.5,8.5,0,0,1-8.48-8.48h0a8.5,8.5,0,0,1,8.48-8.48h73.08a8.51,8.51,0,0,1,8.48,8.48h0A8.51,8.51,0,0,1,244.21,293.82Z" transform="translate(-44.26 -32.9)"/><path class="cls-5" d="M209.5,302.69H189.4a11.59,11.59,0,0,1-11.58-11.58V251.8a4.46,4.46,0,1,1,8.92,0v39.31a2.66,2.66,0,0,0,2.66,2.66h20.1a4.46,4.46,0,0,1,0,8.92Z" transform="translate(-44.26 -32.9)"/><rect class="cls-5" x="129.34" y="209.52" width="17.35" height="17.35" rx="3.41"/><line class="cls-21" x1="142.83" y1="211.91" x2="142.83" y2="224.48"/><path class="cls-5" d="M382.35,186.36c-.81,6.82-5.34,16.86-12.53,17.75-8.85,1.09-18.69-12.11-17.44-23a15.33,15.33,0,0,1,18.24-13.88,15.18,15.18,0,0,1,8.23,4.58C383.46,177,382.66,183.69,382.35,186.36Z" transform="translate(-44.26 -32.9)"/><path class="cls-5" d="M371.88,211.19c3.71-1.43,5.33-5.57,5.52-8.45,0-.54-.63-2.89-1.95-7.55-1-3.64-1.34-4.6-2.39-5.45a6.77,6.77,0,0,0-5.25-1.14,7.58,7.58,0,0,0-4.46,2.65c-.35.43-.86,1.14-2.09,6.62-.88,3.9-1,5.16-.85,6.6a5.84,5.84,0,0,0,1,3.59,9.63,9.63,0,0,0,3.6,2.73A9.27,9.27,0,0,0,371.88,211.19Z" transform="translate(-44.26 -32.9)"/><path class="cls-5" d="M354.28,184.89c.4,2.52,0,4.67-.85,4.81s-1.9-1.79-2.3-4.31,0-4.67.85-4.81S353.88,182.37,354.28,184.89Z" transform="translate(-44.26 -32.9)"/><path class="cls-5" d="M384.4,185.37c-.36,2.52-1.36,4.46-2.24,4.34s-1.28-2.27-.92-4.8,1.36-4.46,2.23-4.34S384.76,182.85,384.4,185.37Z" transform="translate(-44.26 -32.9)"/><path class="cls-13" d="M364.85,365.89V374L349,378.7v2.78h30.82l-1.2-15.59Z" transform="translate(-44.26 -32.9)"/><polygon class="cls-10" points="306.69 238.23 319.19 333 336.16 333 336.16 239.82 306.69 238.23"/><path class="cls-18" d="M356.6,314l23.83-10.06V293.77l-26.48.05Q355.27,303.89,356.6,314Z" transform="translate(-44.26 -32.9)"/><path class="cls-13" d="M336.28,365.89V374l-14.61,4.29a1.77,1.77,0,0,0-1.27,1.7h0a1.76,1.76,0,0,0,1.76,1.76l29.1.19q-.63-8.3-1.28-16.6Z" transform="translate(-44.26 -32.9)"/><polygon class="cls-10" points="278.13 238.23 290.63 333 307.6 333 307.6 239.82 278.13 238.23"/><path class="cls-10" d="M322.39,271.13a9.16,9.16,0,0,0,9.17,9.16h60.81a9.31,9.31,0,0,0,7.06-3.22c.46-.52,1.57-2,2.21-7.44a48.77,48.77,0,0,0,.1-10.33L331.21,262A9.16,9.16,0,0,0,322.39,271.13Z" transform="translate(-44.26 -32.9)"/><polygon class="cls-18" points="299.86 244.28 285.29 244.28 307.6 280.23 307.49 244.28 299.86 244.28"/><path class="cls-19" d="M412.29,244.73H402.12a128.9,128.9,0,0,1-.94,20h-51.8q-2.25-9.85-4.52-19.72H313c-2.23-9,24.16-33.6,24.16-33.6,2.59-2.39,15.53-13.94,34.34-12.82a45.27,45.27,0,0,1,22.12,7.49S419.88,235.21,412.29,244.73Z" transform="translate(-44.26 -32.9)"/><line class="cls-21" x1="300.6" y1="212.08" x2="295.39" y2="192.16"/><line class="cls-21" x1="298" y1="203.19" x2="293.22" y2="199.62"/><path class="cls-13" d="M353.43,189.7c-12.74,11.05-13.21,29.63-3.28,39.62,8.4,8.47,22.94,9.44,31.92,2.76,11.34-8.44,13.38-28.72.09-42.37l.66-8.88s1.84-14-14.44-15.34c0,0,.6-3.52-6.05-2.82s3.67,3.22,3.67,3.22c-1.45.15-8.2,1-11.49,6.27-1.7,2.72-1.89,5.68-2.06,8.42A27.49,27.49,0,0,0,353.43,189.7Z" transform="translate(-44.26 -32.9)"/><path class="cls-4" d="M400.88,378.87,379,369.66V306.31l-9.82,4.55V369.7l-21.78,9.17a1.36,1.36,0,0,0,.53,2.61h52.42A1.36,1.36,0,0,0,400.88,378.87Z" transform="translate(-44.26 -32.9)"/><polygon class="cls-4" points="334.75 269.8 334.75 273.42 324.93 277.96 324.93 269.8 334.75 269.8"/><polygon class="cls-17" points="334.75 269.8 334.75 273.42 324.93 277.96 324.93 269.8 334.75 269.8"/><path class="cls-5" d="M345.16,302.69h58a4.43,4.43,0,0,0,4.43-4.43h0a4.43,4.43,0,0,0-4.43-4.44h-58a4.44,4.44,0,0,0-4.44,4.44h0A4.43,4.43,0,0,0,345.16,302.69Z" transform="translate(-44.26 -32.9)"/><rect class="cls-4" x="365.93" y="217.19" width="53.65" height="53.65" rx="10.68" transform="translate(741.26 455.14) rotate(180)"/><path class="cls-4" d="M338,293.82h73.08a8.51,8.51,0,0,0,8.48-8.48h0a8.51,8.51,0,0,0-8.48-8.48H338a8.5,8.5,0,0,0-8.48,8.48h0A8.5,8.5,0,0,0,338,293.82Z" transform="translate(-44.26 -32.9)"/><path class="cls-5" d="M372.73,302.69h20.11a11.59,11.59,0,0,0,11.58-11.58V251.8a4.46,4.46,0,0,0-8.92,0v39.31a2.67,2.67,0,0,1-2.66,2.66H372.73a4.46,4.46,0,0,0,0,8.92Z" transform="translate(-44.26 -32.9)"/><rect class="cls-5" x="391.28" y="242.42" width="17.35" height="17.35" rx="3.41" transform="translate(755.65 469.3) rotate(180)"/><line class="cls-21" x1="351.3" y1="212.07" x2="351.3" y2="224.64"/></g></g></svg>